<svg id="cerrar" xmlns="http://www.w3.org/2000/svg" xmlns:xlink="http://www.w3.org/1999/xlink" width="29.204" height="26.773" viewBox="0 0 29.204 26.773">
  <defs>
    <linearGradient id="linear-gradient" y1="0.5" x2="1" y2="0.5" gradientUnits="objectBoundingBox">
      <stop offset="0" stop-color="#803ee5" stop-opacity="0.651"/>
      <stop offset="1" stop-color="#7880e8" stop-opacity="0.851"/>
    </linearGradient>
  </defs>
  <path id="Trazado_201" data-name="Trazado 201" d="M224,38.484v-2.2c.075-.482.115-.971.232-1.445q1.94-7.892,10.351-10.359A16.351,16.351,0,0,1,237.4,24h2.338c.563.075,1.13.128,1.688.229a15.015,15.015,0,0,1,6.758,3.026,13.838,13.838,0,0,1,3,3.294.449.449,0,0,1,.009.6c-.081.093-.044.178,0,.267q.122.222.242.444a.289.289,0,0,0,.258.176.537.537,0,0,1,.49.378,14.2,14.2,0,0,1,.511,1.385,14.717,14.717,0,0,1,.5,2.487v2.2c-.075.482-.115.971-.232,1.445q-1.94,7.892-10.351,10.359a16.417,16.417,0,0,1-2.822.485h-2.4c-.526-.069-1.059-.106-1.575-.213q-8.694-1.8-11.337-9.615A13.067,13.067,0,0,1,224,38.484Zm20.636,6.12a2.032,2.032,0,0,0,1.808-1.407,1.727,1.727,0,0,0-.614-1.854c-1.009-.936-2.029-1.862-3.043-2.793a1.38,1.38,0,0,1,.01-2.336q1.472-1.35,2.945-2.7a2.1,2.1,0,0,0,.563-.808,1.913,1.913,0,0,0-2.087-2.571,2.179,2.179,0,0,0-1.312.629q-1.524,1.394-3.045,2.791a1.665,1.665,0,0,1-2.528-.008c-1-.911-1.988-1.826-2.989-2.731a2.26,2.26,0,0,0-2.031-.577,1.79,1.79,0,0,0-1.517,2.248,2.255,2.255,0,0,0,.666,1.019q1.534,1.4,3.061,2.814a1.307,1.307,0,0,1,.092,2.033c-.637.623-1.31,1.214-1.968,1.819a.576.576,0,0,1-.547.142c-.289-.063-.734.34-.674.614a.516.516,0,0,1-.125.488,2.091,2.091,0,0,0-.393.663,1.7,1.7,0,0,0,1.137,2.363,2.33,2.33,0,0,0,2.3-.491c1.008-.9,1.995-1.819,2.991-2.73a1.665,1.665,0,0,1,2.528-.008q1.493,1.367,2.984,2.736A2.524,2.524,0,0,0,244.636,44.6Z" transform="translate(-224 -24)" fill="url(#linear-gradient)"/>
</svg>
