<svg xmlns="http://www.w3.org/2000/svg" width="26.255" height="26.25" viewBox="0 0 26.255 26.25">
  <g id="Grupo_62" data-name="Grupo 62" transform="translate(-369.988 -396)">
    <path id="Trazado_75" data-name="Trazado 75" d="M396.243,401.789V416.44c-.029.15-.059.3-.085.452a6.564,6.564,0,0,1-6.338,5.355q-6.7.01-13.393,0a5.48,5.48,0,0,1-.689-.045,6.559,6.559,0,0,1-5.743-6.491c0-4.4-.016-8.792.005-13.188a6.374,6.374,0,0,1,3.034-5.52,6.731,6.731,0,0,1,2.768-1h14.651a1.257,1.257,0,0,0,.123.031,6.519,6.519,0,0,1,4.707,3.058A6.832,6.832,0,0,1,396.243,401.789Zm-24.01,7.308q0,3.227,0,6.454a4.545,4.545,0,0,0,.011.512,4.342,4.342,0,0,0,4.406,3.946q6.48,0,12.96,0a4.329,4.329,0,0,0,4.412-4.412q0-6.48,0-12.96a4.1,4.1,0,0,0-.011-.461,4.334,4.334,0,0,0-4.444-3.958q-6.442,0-12.883,0a4.3,4.3,0,0,0-4.451,4.449Q372.23,405.882,372.232,409.1Z" transform="translate(0)" fill="#030303"/>
    <path id="Trazado_76" data-name="Trazado 76" d="M392.184,422.678c0-.657-.007-1.315,0-1.972,0-.236-.089-.312-.318-.311-1.255.007-2.51,0-3.765,0a2.523,2.523,0,0,1-.483-.042,1.118,1.118,0,0,1,0-2.185,2.249,2.249,0,0,1,.483-.04h3.714c.351,0,.366-.014.366-.358,0-1.246,0-2.493,0-3.739a2.426,2.426,0,0,1,.044-.483,1.091,1.091,0,0,1,1.068-.862,1.1,1.1,0,0,1,1.108.847,2.193,2.193,0,0,1,.047.509q0,1.87,0,3.74c0,.328.02.346.351.347,1.247,0,2.493,0,3.739,0a2.448,2.448,0,0,1,.458.039,1.116,1.116,0,0,1,0,2.186,2.481,2.481,0,0,1-.458.039c-1.238,0-2.476,0-3.714,0-.367,0-.378.011-.378.371,0,1.238,0,2.476,0,3.714a2.492,2.492,0,0,1-.042.483,1.116,1.116,0,0,1-2.182-.013,9.729,9.729,0,0,1-.04-1.508C392.178,423.191,392.184,422.934,392.184,422.678Z" transform="translate(-10.19 -10.15)" fill="#030303"/>
  </g>
</svg>