<svg xmlns="http://www.w3.org/2000/svg" xmlns:xlink="http://www.w3.org/1999/xlink" width="31.029" height="32.377" viewBox="0 0 31.029 32.377">
  <defs>
    <linearGradient id="linear-gradient" y1="0.5" x2="1" y2="0.5" gradientUnits="objectBoundingBox">
      <stop offset="0" stop-color="#a732c2"/>
      <stop offset="0.539" stop-color="#803bc1"/>
      <stop offset="1" stop-color="#5780c3"/>
    </linearGradient>
  </defs>
  <path id="Trazado_2523" data-name="Trazado 2523" d="M234.143,914.331a1.349,1.349,0,0,1-1.349,1.349H220.652a6.753,6.753,0,0,1-6.745-6.745V890.048a6.753,6.753,0,0,1,6.745-6.745h6.091a9.386,9.386,0,0,1,6.678,2.766l4.7,4.7a9.5,9.5,0,0,1,1.009,1.191,1.349,1.349,0,1,1-2.195,1.568,6.7,6.7,0,0,0-.72-.85l-4.7-4.7a6.765,6.765,0,0,0-1.418-1.086v5.855a1.35,1.35,0,0,0,1.349,1.349h4.047a1.349,1.349,0,1,1,0,2.7h-4.047a4.052,4.052,0,0,1-4.047-4.047v-6.714c-.216-.02-.435-.031-.654-.031h-6.091a4.052,4.052,0,0,0-4.047,4.047v18.887a4.052,4.052,0,0,0,4.047,4.047h12.141A1.349,1.349,0,0,1,234.143,914.331Zm7.669-9.083-4.1-.684a1.037,1.037,0,0,1-.869-1.025,1.35,1.35,0,0,1,1.349-1.349h3.06a1.358,1.358,0,0,1,1.17.674,1.348,1.348,0,1,0,2.334-1.35,4.059,4.059,0,0,0-3.5-2.024h-.361v-1.349a1.349,1.349,0,1,0-2.7,0v1.349a4.052,4.052,0,0,0-4.047,4.047,3.726,3.726,0,0,0,3.123,3.687l4.1.684a1.037,1.037,0,0,1,.869,1.025,1.35,1.35,0,0,1-1.349,1.349h-3.06a1.358,1.358,0,0,1-1.17-.675,1.348,1.348,0,1,0-2.334,1.35,4.058,4.058,0,0,0,3.5,2.022h.362v1.349a1.349,1.349,0,0,0,2.7,0v-1.349a4.052,4.052,0,0,0,4.047-4.047,3.726,3.726,0,0,0-3.123-3.687Zm-19.136-1.709h7.42a1.349,1.349,0,0,0,0-2.7h-7.42a3.377,3.377,0,0,0-3.373,3.372v2.7a3.377,3.377,0,0,0,3.373,3.372h7.42a1.349,1.349,0,1,0,0-2.7h-7.42a.675.675,0,0,1-.675-.674v-2.7a.675.675,0,0,1,.675-.674Zm-2.024-5.4h2.7a1.349,1.349,0,1,0,0-2.7h-2.7a1.349,1.349,0,0,0,0,2.7Zm0-5.4h2.7a1.349,1.349,0,1,0,0-2.7h-2.7a1.349,1.349,0,0,0,0,2.7Z" transform="translate(-213.907 -883.303)" fill="url(#linear-gradient)"/>
</svg>
