<svg xmlns="http://www.w3.org/2000/svg" xmlns:xlink="http://www.w3.org/1999/xlink" width="1280" height="803" viewBox="0 0 1280 803">
  <defs>
    <linearGradient id="linear-gradient" y1="0.5" x2="1" y2="0.5" gradientUnits="objectBoundingBox">
      <stop offset="0" stop-color="#833ef9" stop-opacity="0.651"/>
      <stop offset="1" stop-color="#788ffc" stop-opacity="0.851"/>
    </linearGradient>
    <linearGradient id="linear-gradient-2" y1="0.5" x2="1" y2="0.5" gradientUnits="objectBoundingBox">
      <stop offset="0" stop-color="#46b9f7" stop-opacity="0.396"/>
      <stop offset="1" stop-color="#788ffc" stop-opacity="0.851"/>
    </linearGradient>
    <linearGradient id="linear-gradient-3" x1="0.5" x2="0.5" y2="1" gradientUnits="objectBoundingBox">
      <stop offset="0" stop-color="#df32fa"/>
      <stop offset="0.539" stop-color="#843bf9"/>
      <stop offset="1" stop-color="#57abfb"/>
    </linearGradient>
    <clipPath id="clip-BIENVENIDA_1">
      <rect width="1280" height="803"/>
    </clipPath>
  </defs>
  <g id="BIENVENIDA_1" data-name="BIENVENIDA – 1" clip-path="url(#clip-BIENVENIDA_1)">
    <rect width="1280" height="803" fill="#fff"/>
    <g id="Grupo_931" data-name="Grupo 931">
      <path id="Trazado_34" data-name="Trazado 34" d="M0,444.866s98.412-40.781,101.409-107.073S109.4,228.3,156.359,195.525s129.884-35.753,129.884-35.753,184.147-.579,183.836-30.539c-.5-48.043,51.953-31.284,110.9-129.233h697.876V385.889s-125.388,111.3-187.332,122.476-148.392-21.23-241.784,13.407c-99.411,36.87-152.364,24.208-210.312-52.7-48.4-64.233-95.467,23.994-101.909,45.622-7.976,26.777-27.975,79.7-83.925,90.128S339.656,618.26,275.253,575.4c-74.433-49.533-179.778,23.024-179.778,23.024S3,685.268,0,695.7,0,444.866,0,444.866Z" transform="translate(1.333)" opacity="0.21" fill="url(#linear-gradient)"/>
      <path id="Trazado_37" data-name="Trazado 37" d="M0,521.9S98.415,399.721,101.413,333.441s7.993-109.474,54.953-142.242,129.89-35.747,129.89-35.747,184.156-.579,183.844-30.534c-.5-48.035,56-59.955,114.951-157.886h693.862V353.8s-125.393,139.01-187.341,150.18-146.928,27.306-240.324,61.937C751.832,602.783,697.406,541.591,639.455,464.7c-48.4-64.222-95.471,23.99-101.913,45.614-7.976,26.772-27.976,79.685-83.929,90.111s-113.942,13.434-178.348-29.417c-74.437-49.524-183.344,16.012-183.344,16.012S3,651.127,0,661.554,0,521.9,0,521.9Z" transform="translate(1.333 32.969)" opacity="0.12" fill="url(#linear-gradient-2)"/>
    </g>
    <circle id="Elipse_6" data-name="Elipse 6" cx="15.5" cy="15.5" r="15.5" transform="translate(1191 265)" fill="#fff"/>
    <circle id="Elipse_7" data-name="Elipse 7" cx="7.5" cy="7.5" r="7.5" transform="translate(1222 226)" fill="#fff"/>
    <g id="Elipse_8" data-name="Elipse 8" transform="translate(431 241)" fill="#fff" stroke="#fcfcfc" stroke-width="1">
      <ellipse cx="97.5" cy="95" rx="97.5" ry="95" stroke="none"/>
      <ellipse cx="97.5" cy="95" rx="97" ry="94.5" fill="none"/>
    </g>
    <ellipse id="Elipse_10" data-name="Elipse 10" cx="97.5" cy="95" rx="97.5" ry="95" transform="translate(-38 201)" opacity="0.401" fill="url(#linear-gradient-3)"/>
    <g id="Elipse_9" data-name="Elipse 9" transform="translate(58 461)" fill="#fff" stroke="#fcfcfc" stroke-width="1">
      <ellipse cx="55" cy="53.5" rx="55" ry="53.5" stroke="none"/>
      <ellipse cx="55" cy="53.5" rx="54.5" ry="53" fill="none"/>
    </g>
    <circle id="Elipse_11" data-name="Elipse 11" cx="15.5" cy="15.5" r="15.5" transform="translate(217 265)" fill="#fff"/>
    <circle id="Elipse_12" data-name="Elipse 12" cx="15.5" cy="15.5" r="15.5" transform="translate(625 400)" fill="#fff"/>
  </g>
</svg>
