<?xml version="1.0" encoding="UTF-8"?>
<svg id="Capa_1" data-name="Capa 1" xmlns="http://www.w3.org/2000/svg" xmlns:xlink="http://www.w3.org/1999/xlink" viewBox="0 0 1280 1017.5">
  <defs>
    <style>
      .cls-1 {
        fill: none;
      }

      .cls-2 {
        clip-path: url(#clippath);
      }

      .cls-3 {
        fill: #6a3012;
      }

      .cls-4 {
        fill: #fd9823;
      }

      .cls-5 {
        fill: #fda732;
      }

      .cls-6 {
        fill: #fda337;
      }

      .cls-7 {
        fill: #fda53a;
      }

      .cls-8 {
        fill: #984c0f;
      }

      .cls-9 {
        fill: #994c0f;
      }

      .cls-10 {
        fill: #713708;
      }
    </style>
    <clipPath id="clippath">
      <rect class="cls-1" x="145.64" y="114.1" width="837.54" height="836.72"/>
    </clipPath>
  </defs>
  <g class="cls-2">
    <g id="Grupo_994" data-name="Grupo 994">
      <path id="Trazado_2547" data-name="Trazado 2547" class="cls-4" d="M538.24,950.82h-9.81c-12.59-1.83-25.35-1.87-38.01-2.91-10.02-1.01-19.94-2.86-29.65-5.51-60.45-15.27-116.84-43.58-165.19-82.94-8.4-6.5-16.26-13.68-23.5-21.45-2.8-2.21-4.85-5.23-5.88-8.65,.15-4.14,2.14-7.99,5.42-10.51,15.2-14.41,28.71-30.43,43.47-45.32,13.01-13.1,24.92-27.29,38.46-39.9,1.96-1.83,3.41-4.31,6.23-5.12,.81-.19,1.66-.19,2.47,0,7.17,3.42,12.67,9.23,19.56,13.22,33.55,18.74,75.94,6.74,94.69-26.81,14.86-26.59,10.69-59.76-10.29-81.85-1.81-2.03-3.42-4.24-4.8-6.58-.36-.73-.57-1.52-.64-2.33,.12-3.31,1.65-6.41,4.2-8.53,7.34-7.65,14.4-15.63,21.82-23.09,17.7-17.73,34.49-36.31,51.86-54.32,22.28-23.1,44.43-46.32,66.46-69.66,20.14-21.38,40.77-42.32,60.67-63.89,22.87-24.78,46.91-48.44,69.28-73.68,2.61-3.19,6.26-5.36,10.32-6.12,7.63,.56,12.29,6.66,18.4,10.02,19.81,11.68,42.32,18,65.31,18.36,10.63-.05,21.27-.18,31.89,.08,14.92-.23,27.26,11.57,27.7,26.49,.77,17.15,4.35,34.06,10.59,50.06,11.61,27.76,33.85,49.71,61.76,60.95,13.6,5.56,22.13,12.92,22.09,28.13v21.27c-1.33,4.26-1.33,8.82,0,13.08v9.81c-1.68,12.07-1.44,24.3-2.74,36.39-3.73,28.38-11.22,56.14-22.27,82.55-36.05,92.78-103.03,170.27-189.62,219.37-36.29,20.05-75.24,34.82-115.7,43.88-16.33,2.8-32.86,4.37-49.43,4.7-2.65,.21-5.44-.84-7.95,.84h-47.36c-3.14-1.29-6.67-1.29-9.81,0"/>
      <path id="Trazado_2548" data-name="Trazado 2548" class="cls-5" d="M744.91,327.28c-12.38,12.59-25.5,24.55-36.93,37.95-12.04,14.11-25.78,26.5-38.02,40.4-16.53,18.77-34.72,36.09-52.04,54.16-32.69,34.2-65.32,68.48-97.89,102.82-17.41,18.34-34.76,36.75-52.04,55.23-1.85,1.97-3.47,4.2-5.2,6.25-4.83,3.15-8.18-.56-11.75-2.67-23.64-14.43-53.65-13.2-76.03,3.11-30.58,22.09-38.02,64.5-16.79,95.68,1.85,2.89,4.9,5.51,1.94,9.39-.67,2.65-2.13,5.03-4.2,6.82-16.46,16.99-33.45,33.51-49.17,51.2-12.49,14.02-26.58,26.47-38.61,40.9-4.64,1.82-7.13-1.62-9.71-4.24-20.67-21.3-38.89-44.85-54.32-70.21-26.18-42.22-44.5-88.84-54.04-137.6-2-14.51-3.22-29.12-3.64-43.77-.13-1.58,.43-3.28-.84-4.67v-14.73c1.29-3.14,1.29-6.67,0-9.81v-8.17c1.3-5.93,1.3-12.07,0-17.99v-17.99c1.99-11.5,1.82-23.16,2.69-34.75,1.87-17.86,5.64-35.48,11.26-52.54,16.22-54.75,43.03-105.8,78.89-150.24,33.55-42,74.38-77.61,120.56-105.13,23.97-14.03,49.15-25.89,75.23-35.44,13.15-4.49,26.92-6.9,40.81-7.14h10.2c10.08-.38,19.22,5.88,22.52,15.42,19.73,40.12,49.72,67.8,95.15,75.48,17.03,2.69,34.45,1.25,50.8-4.2,15.85-4.99,25.84-2.03,34.86,9.54,4.29,7,6.67,15,6.87,23.21,4.64,31.25,19.59,60.05,42.47,81.82,3.3,3.23,8.48,5.69,6.96,11.88"/>
      <path id="Trazado_2549" data-name="Trazado 2549" class="cls-6" d="M983.18,553.33c-2.39-4.04-2.39-9.05,0-13.08v13.08Z"/>
      <path id="Trazado_2550" data-name="Trazado 2550" class="cls-7" d="M538.24,950.82c2.9-2.2,6.91-2.2,9.81,0h-9.81Z"/>
      <path id="Trazado_2551" data-name="Trazado 2551" class="cls-10" d="M661.93,460.17c40.6,.57,73.05,33.95,72.48,74.55-.57,40.6-33.95,73.05-74.55,72.48-40.6-.57-73.05-33.95-72.48-74.55,0-.06,0-.13,0-.19,1.01-40.38,34.15-72.53,74.55-72.29"/>
      <path id="Trazado_2552" data-name="Trazado 2552" class="cls-10" d="M462.97,625.31c21.76,16.85,31.3,45.1,24.2,71.69-5.18,27.65-26.51,49.46-54.04,55.23-26.16,7.52-54.28-1.21-71.58-22.22-.77-3.81,.76-7.71,3.91-9.99,14.35-13.66,26.99-28.96,41.13-42.88,15.44-15.22,29.48-31.89,45.24-46.81,3.16-3,6.09-6.35,11.16-5.04"/>
      <path id="Trazado_2553" data-name="Trazado 2553" class="cls-8" d="M462.96,625.31c-13.74,11.98-26.13,25.31-38.68,38.48-3,3.14-5.74,6.51-8.73,9.66-17.98,18.87-35.99,37.73-54.02,56.56l-1.38-.39c-9.53-11.62-15.59-25.68-17.48-40.59-4.43-40.22,24.58-76.42,64.8-80.85,16.46-1.81,33.04,2,47.05,10.82,2.78,1.68,5.53,3.4,8.29,5.1,.04,.4,.09,.81,.14,1.21"/>
      <path id="Trazado_2554" data-name="Trazado 2554" class="cls-10" d="M685.36,754.39c.08,27.06-21.8,49.06-48.86,49.14-27.06,.08-49.06-21.8-49.14-48.86s21.79-49.06,48.86-49.14c26.96,.16,48.82,21.9,49.14,48.86"/>
      <path id="Trazado_2555" data-name="Trazado 2555" class="cls-10" d="M831.21,633.68c.14,13.3-10.52,24.2-23.82,24.34-.17,0-.35,0-.52,0-13.45-.06-24.38-10.89-24.56-24.34,.26-13.44,11.09-24.27,24.53-24.53,13.48,.03,24.37,10.98,24.34,24.46,0,.03,0,.05,0,.08"/>
      <path id="Trazado_2556" data-name="Trazado 2556" class="cls-8" d="M489.06,410.66c.18,27.07-21.61,49.15-48.68,49.33-27.07,.18-49.15-21.61-49.33-48.68-.18-27.06,21.61-49.15,48.67-49.33,26.97,.06,48.92,21.71,49.34,48.68"/>
      <path id="Trazado_2557" data-name="Trazado 2557" class="cls-9" d="M340.41,535.63c.14,13.26-10.49,24.12-23.75,24.26-.2,0-.39,0-.59,0-13.45-.15-24.33-11.01-24.5-24.46,.4-13.42,11.25-24.17,24.67-24.43,13.47,.1,24.3,11.1,24.2,24.56,0,.03,0,.05,0,.08"/>
    </g>
  </g>
  <circle id="Elipse_47" data-name="Elipse 47" class="cls-3" cx="1017.64" cy="280.48" r="37.77"/>
  <circle id="Elipse_47-2" data-name="Elipse 47" class="cls-3" cx="978.09" cy="148.62" r="31.8"/>
  <circle id="Elipse_47-3" data-name="Elipse 47" class="cls-3" cx="1103.99" cy="173.8" r="15.01"/>
</svg>