<svg xmlns="http://www.w3.org/2000/svg" xmlns:xlink="http://www.w3.org/1999/xlink" width="43.765" height="24.927" viewBox="0 0 43.765 24.927">
  <defs>
    <linearGradient id="linear-gradient" y1="0.5" x2="1" y2="0.5" gradientUnits="objectBoundingBox">
      <stop offset="0" stop-color="#a732c2"/>
      <stop offset="0.539" stop-color="#803bc1"/>
      <stop offset="1" stop-color="#5780c3"/>
    </linearGradient>
  </defs>
  <g id="Grupo_921" data-name="Grupo 921" transform="translate(-839.643 -618.917)">
    <path id="Trazado_2524" data-name="Trazado 2524" d="M883.408,631.761a27.86,27.86,0,0,1-4.256,4.419,35.157,35.157,0,0,1-5.684,4.114,25.7,25.7,0,0,1-8.592,3.267,19.86,19.86,0,0,1-7.6-.179,25.669,25.669,0,0,1-6.66-2.528,35.162,35.162,0,0,1-4.982-3.265,38.184,38.184,0,0,1-4.286-3.852,16.9,16.9,0,0,1-1.709-1.976V631a27.966,27.966,0,0,1,4.256-4.421,35.689,35.689,0,0,1,5.685-4.113,25.685,25.685,0,0,1,8.592-3.266,19.851,19.851,0,0,1,7.6.179,25.7,25.7,0,0,1,6.66,2.528,35.264,35.264,0,0,1,4.982,3.265,38.668,38.668,0,0,1,4.285,3.852,16.647,16.647,0,0,1,1.71,1.976ZM861.2,621.571a17.242,17.242,0,0,0-5.956,1.2,28.962,28.962,0,0,0-7.773,4.492,44.654,44.654,0,0,0-4.242,3.855c-.2.2-.2.341,0,.529.606.557,1.175,1.151,1.774,1.716a35.678,35.678,0,0,0,4.624,3.7,26.136,26.136,0,0,0,6.3,3.163,16.911,16.911,0,0,0,12.559-.506,28.969,28.969,0,0,0,6.342-3.655,42.65,42.65,0,0,0,4.994-4.437c.186-.19.186-.325-.007-.5-.608-.553-1.17-1.155-1.772-1.716a36.982,36.982,0,0,0-4.976-3.923,26.075,26.075,0,0,0-5.8-2.9A17.982,17.982,0,0,0,861.2,621.571Z" fill="url(#linear-gradient)"/>
    <path id="Trazado_2525" data-name="Trazado 2525" d="M878.77,645.2a9.56,9.56,0,0,1-5.661-1.7,7.145,7.145,0,0,1-1.525-1.421,7.165,7.165,0,0,1-1.319-6.993,7.946,7.946,0,0,1,3.064-3.814,9.5,9.5,0,0,1,9.636-.493,8.224,8.224,0,0,1,3.189,2.91,6.432,6.432,0,0,1,1.051,3.137,7.488,7.488,0,0,1-.228,2.561,7.653,7.653,0,0,1-2.467,3.7,9.191,9.191,0,0,1-3.89,1.9A11.849,11.849,0,0,1,878.77,645.2Zm-.229-12.836a4.87,4.87,0,0,0-1.024.08,5.358,5.358,0,0,0-4.382,3.4,4.522,4.522,0,0,0,1.463,5.276,5.874,5.874,0,0,0,4.938,1.342,5.378,5.378,0,0,0,4.437-3.382,4.36,4.36,0,0,0-.688-4.49A5.767,5.767,0,0,0,878.541,632.364Z" transform="translate(-17.03 -6.071)" fill="url(#linear-gradient)"/>
  </g>
</svg>
