<svg xmlns="http://www.w3.org/2000/svg" width="74.972" height="55" viewBox="0 0 74.972 55">
  <g id="icono_realizar_avance" data-name="icono realizar avance" transform="translate(-1505.28 -3255)">
    <g id="Grupo_38" data-name="Grupo 38">
      <path id="Trazado_73" data-name="Trazado 73" d="M1523.031,3264.344h29.139q1.29,20.342,2.58,40.677h6.593q-1.653-20.344-3.306-40.677h4.455c.079.671.162,1.353.241,2.036q.352,3.095.7,6.189.357,3.13.716,6.262c.235,2.038.476,4.075.709,6.112.211,1.842.412,3.685.623,5.527.261,2.271.532,4.541.793,6.813s.515,4.543.765,6.815a14.193,14.193,0,0,1,.158,1.845,4.2,4.2,0,0,1-4.189,4.057l-12.437,0h-27.993a4.246,4.246,0,0,1-4.232-4.912c.268-2.1.485-4.2.727-6.3q.43-3.736.864-7.471c.258-2.259.508-4.519.767-6.779s.53-4.542.79-6.813c.236-2.063.462-4.126.7-6.189q.344-3.021.7-6.04C1522.936,3265.119,1522.983,3264.741,1523.031,3264.344Z" fill="#ccc"/>
      <path id="Trazado_74" data-name="Trazado 74" d="M1519.728,3267.833l-.661,5.774c-.09.008-.162.021-.234.021-3.342,0-6.683.008-10.025,0a3.591,3.591,0,0,1-3.51-3.6q-.034-5.718,0-11.436a3.591,3.591,0,0,1,3.671-3.589c2.81,0,5.619.018,8.428.017q9.151,0,18.3-.018c1.446,0,2.893.03,4.339.029q10.71-.011,21.42-.03,7.516-.007,15.034,0a3.618,3.618,0,0,1,3.737,3.646q.039,5.643,0,11.286a3.607,3.607,0,0,1-3.758,3.695q-4.827,0-9.654,0h-.359l-.669-5.814c.15,0,.28,0,.409,0,.829-.014,1.661.017,2.485-.054a3.472,3.472,0,0,0-.154-6.905c-.963-.043-1.929-.018-2.894-.018h-43.178c-1.744,0-3.489-.016-5.234.005a3.485,3.485,0,0,0,.109,6.97c.668.013,1.336,0,2,0C1519.46,3267.816,1519.581,3267.826,1519.728,3267.833Z" fill="#ccc"/>
      <path id="Trazado_75" data-name="Trazado 75" d="M1529.608,3292.412l-.137,1.716-2.891-.871Z" fill="#ccc"/>
    </g>
  </g>
</svg>
