<svg xmlns="http://www.w3.org/2000/svg" width="52.434" height="60" viewBox="0 0 52.434 60">
  <g id="icono_candado_-_cambiar_pin" data-name="icono candado - cambiar pin" transform="translate(-1123.07 -3253)">
    <g id="Grupo_45" data-name="Grupo 45">
      <path id="Trazado_76" data-name="Trazado 76" d="M1131.875,3273.767H1166.7c.006.121.017.233.017.344,0,2.433.015,4.865,0,7.3-.01,1.3-.012,2.608-.132,3.9a16.247,16.247,0,0,1-3.091,8.113,17.07,17.07,0,0,1-11.017,7.03,16.708,16.708,0,0,1-10.913-1.522,17.1,17.1,0,0,1-9.369-12.234,16.341,16.341,0,0,1-.317-3.179c-.04-3.161-.015-6.322-.014-9.482C1131.86,3273.955,1131.869,3273.875,1131.875,3273.767Zm14.595,14.915c0,.6-.005,1.2,0,1.8a2.828,2.828,0,1,0,5.647-.28c0-1.116-.01-2.231,0-3.347a.631.631,0,0,1,.173-.413,4.669,4.669,0,0,0-3.948-8.14,4.677,4.677,0,0,0-2.086,8.115.685.685,0,0,1,.2.436C1146.482,3287.46,1146.469,3288.071,1146.47,3288.682Z" fill="#7757ff"/>
      <path id="Trazado_77" data-name="Trazado 77" d="M1165.518,3270.315h-5.886c0-.21,0-.416,0-.622-.011-1.422.024-2.845-.043-4.264a6.95,6.95,0,0,0-5.41-6.335,6.362,6.362,0,0,0-1.288-.158c-2.432-.013-4.865-.052-7.3.012a6.627,6.627,0,0,0-5.228,2.769,6.942,6.942,0,0,0-1.422,4.366c0,1.4,0,2.795,0,4.214h-5.884v-.311c0-1.445-.008-2.891.006-4.336a12.918,12.918,0,0,1,10.25-12.366,18.767,18.767,0,0,1,3.785-.268c1.88,0,3.761-.044,5.64.01a12.658,12.658,0,0,1,11.014,6.4,11.886,11.886,0,0,1,1.663,4.849,24.469,24.469,0,0,1,.1,2.6C1165.529,3268.01,1165.518,3269.148,1165.518,3270.315Z" fill="#7757ff"/>
      <g id="Grupo_44" data-name="Grupo 44">
        <g id="Grupo_40" data-name="Grupo 40">
          <path id="Trazado_78" data-name="Trazado 78" d="M1124.119,3311.741l1.889-2.813-2.938-.923.672-2.1,2.98,1.217-.168-3.19h2.561l-.168,3.19,2.98-1.217.63,2.1-2.9.923,1.889,2.813L1129.7,3313l-1.847-2.98-1.889,2.98Z" fill="#7757ff"/>
        </g>
        <g id="Grupo_41" data-name="Grupo 41">
          <path id="Trazado_79" data-name="Trazado 79" d="M1138.435,3311.741l1.889-2.813-2.938-.923.672-2.1,2.98,1.217-.168-3.19h2.561l-.168,3.19,2.98-1.217.63,2.1-2.9.923,1.889,2.813-1.847,1.259-1.847-2.98-1.889,2.98Z" fill="#7757ff"/>
        </g>
        <g id="Grupo_42" data-name="Grupo 42">
          <path id="Trazado_80" data-name="Trazado 80" d="M1152.751,3311.741l1.889-2.813L1151.7,3308l.671-2.1,2.981,1.217-.168-3.19h2.56l-.167,3.19,2.98-1.217.629,2.1-2.9.923,1.889,2.813-1.847,1.259-1.847-2.98L1154.6,3313Z" fill="#7757ff"/>
        </g>
        <g id="Grupo_43" data-name="Grupo 43">
          <path id="Trazado_81" data-name="Trazado 81" d="M1167.067,3311.741l1.889-2.813-2.938-.923.671-2.1,2.981,1.217-.168-3.19h2.56l-.167,3.19,2.98-1.217.629,2.1-2.9.923,1.889,2.813L1172.65,3313l-1.847-2.98-1.889,2.98Z" fill="#7757ff"/>
        </g>
      </g>
    </g>
  </g>
</svg>
