<svg xmlns="http://www.w3.org/2000/svg" xmlns:xlink="http://www.w3.org/1999/xlink" width="137.325" height="186" viewBox="0 0 137.325 186"><defs><linearGradient id="a" y1="0.5" x2="1" y2="0.5" gradientUnits="objectBoundingBox"><stop offset="0" stop-color="#4dc3ff"/><stop offset="0.505" stop-color="#8733ff"/><stop offset="1" stop-color="#ff31fa"/></linearGradient></defs><g transform="translate(-1377.064 -4225)"><path d="M1460.111,4302.205c-5.561-2.444-9.641,1.511-14.005,5.5-6.228,5.688-12.8,11-19.287,16.4a14.68,14.68,0,0,1-3.224,1.562,15.59,15.59,0,0,1,.4-4.048q4.211-11.177,8.69-22.252c.913-2.268.586-3.449-1.8-4.7-8.956-4.7-16.1-11.334-19.654-21.062-4.507-12.321-.434-25.633,10.577-34.936,12.412-10.486,27.076-14.172,42.971-13.606,13.606.485,26.166,4.282,36.729,13.21,17.423,14.726,17.135,36.85-.65,51.17C1489.288,4298.752,1475.731,4302.137,1460.111,4302.205Zm-23.417-46.381a7.759,7.759,0,0,0-7.7,7.837,7.721,7.721,0,1,0,15.442-.058A7.743,7.743,0,0,0,1436.694,4255.824Zm25.243-.018a7.844,7.844,0,0,0-7.772,7.795,7.936,7.936,0,0,0,7.561,7.74,7.768,7.768,0,1,0,.211-15.535Zm32.847,7.889a7.719,7.719,0,1,0-15.437-.109,7.719,7.719,0,0,0,15.437.109Z" fill="url(#a)"/><path d="M1403.492,4261.493c.359,3.587.687,6.881,1.059,10.606-4.957,0-10.014-.006-15.07,0-4.767.008-5.73.961-5.73,5.648q0,54.006,0,108.011c0,4.553,1,5.594,5.533,5.6q33.547.01,67.1-.016c4.238,0,5.267-1.059,5.267-5.261q0-37.446,0-74.892v-3.214l6.695-.379v2.871q-.006,43.295-.014,86.588c0,8.466-5.437,13.927-13.915,13.934q-31.737.024-63.475,0c-8.284-.008-13.855-5.525-13.862-13.732q-.03-36.61-.005-73.221,0-26.016-.01-52.032c0-6.937,3.487-10.478,10.389-10.5C1392.81,4261.477,1398.167,4261.493,1403.492,4261.493Zm19.394,132.863a6.494,6.494,0,1,0-.191,12.984,6.493,6.493,0,0,0,.191-12.984Z" fill="url(#a)"/></g></svg>