<svg xmlns="http://www.w3.org/2000/svg" width="54.996" height="54.991" viewBox="0 0 54.996 54.991">
  <g id="icono_lupa_-_consulta_movimientos" data-name="icono lupa - consulta movimientos" transform="translate(-511.001 -3259.009)" style="mix-blend-mode: darken;isolation: isolate">
    <g id="Grupo_29" data-name="Grupo 29">
      <path id="Trazado_61" data-name="Trazado 61" d="M528.6,3294.2a17.6,17.6,0,1,1,12.445-30.042h0A17.594,17.594,0,0,1,528.6,3294.2Zm0-31.425a13.83,13.83,0,1,0,9.784,4.045A13.814,13.814,0,0,0,528.6,3262.772Z" fill="#7757ff"/>
    </g>
    <g id="Grupo_30" data-name="Grupo 30">
      <path id="Trazado_62" data-name="Trazado 62" d="M562.232,3312.118a1.876,1.876,0,0,1-1.331-.552l-22.512-22.516a1.882,1.882,0,0,1,2.661-2.662l22.513,22.516a1.883,1.883,0,0,1-1.331,3.214Z" fill="#7757ff"/>
    </g>
    <g id="Grupo_31" data-name="Grupo 31">
      <path id="Trazado_63" data-name="Trazado 63" d="M562.232,3314a3.751,3.751,0,0,1-2.662-1.1l-14.659-14.659a3.765,3.765,0,0,1,5.324-5.324l14.659,14.659a3.765,3.765,0,0,1-2.662,6.427Z" fill="#7757ff"/>
    </g>
  </g>
</svg>
