<svg xmlns="http://www.w3.org/2000/svg" width="50.455" height="51.093" viewBox="0 0 50.455 51.093">
  <g id="icono_compra_de_cartera" data-name="icono compra de cartera" transform="translate(-1715.148 -3257.167)">
    <path id="Trazado_88" data-name="Trazado 88" d="M1756.355,3268.128a5.844,5.844,0,0,0-.273-.733q-2.565-4.637-5.146-9.265c-.615-1.1-1.006-1.2-2.135-.579q-6.336,3.51-12.666,7.031-3,1.668-6,3.343c.022.067.044.135.065.2Z" fill="#ccc"/>
    <path id="Trazado_89" data-name="Trazado 89" d="M1759.541,3268.163c1.051.028,2.1.012,3.24.012-.074-2.44-2.355-3.123-5.259-2.648.451.808.864,1.6,1.343,2.36A.927.927,0,0,0,1759.541,3268.163Z" fill="#ccc"/>
    <path id="Trazado_90" data-name="Trazado 90" d="M1762.995,3300.191v-5.8c-1.074,0-2.04.014-3.006,0a43.927,43.927,0,0,1-6.081-.184,6.566,6.566,0,0,1-5.216-5.744c-.3-4.1,2-6.641,4.56-7.292a19.122,19.122,0,0,1,4.1-.367c1.846-.057,3.7-.014,5.565-.014v-10.4h-4.06q-6.008,0-12.016-.005-5.832,0-11.664.007-6.053,0-12.1,0c-1.3,0-2.592.018-3.887-.027-.667-.023-1.244-.292-1.225-1.1.017-.745.549-1,1.193-1.04a8.082,8.082,0,0,1,1.5,0,11.454,11.454,0,0,0,9.151-2.762,2.292,2.292,0,0,0-.37-.069c-3.652,0-7.3-.026-10.955.01a3.066,3.066,0,0,0-2.977,1.862,5.673,5.673,0,0,0-.337,2.151c-.028,4.156-.011,8.312-.009,12.468q0,11.407.012,22.814c.006,2.351,1.289,3.565,3.66,3.554,1.3-.006,2.593-.015,3.89-.015,12.2,0,24.4-.039,36.6.035a3.5,3.5,0,0,0,3.693-3.918C1762.91,3302.966,1762.995,3301.575,1762.995,3300.191Z" fill="#ccc"/>
    <path id="Trazado_91" data-name="Trazado 91" d="M1754.888,3283.012a4.572,4.572,0,0,0-2.334.9,4.655,4.655,0,0,0-1.444,5.334,4.405,4.405,0,0,0,4.348,3c1.8.016,3.592,0,5.389,0h4.756v-9.279C1761.952,3282.971,1758.418,3282.917,1754.888,3283.012Zm1.073,7.005a2.3,2.3,0,0,1-2.133-2.544,2.242,2.242,0,0,1,2.352-2.131,2.36,2.36,0,0,1,2.323,2.4A2.4,2.4,0,0,1,1755.961,3290.017Z" fill="#ccc"/>
  </g>
</svg>
