<svg xmlns="http://www.w3.org/2000/svg" xmlns:xlink="http://www.w3.org/1999/xlink" width="141.091" height="127.794" viewBox="0 0 141.091 127.794"><defs><linearGradient id="a" y1="0.5" x2="1" y2="0.5" gradientUnits="objectBoundingBox"><stop offset="0" stop-color="#4dc3ff"/><stop offset="0.505" stop-color="#8733ff"/><stop offset="1" stop-color="#ff31fa"/></linearGradient></defs><g transform="translate(-811.758 -6426)"><path d="M918.426,6442.592c-.383.306-.625.5-.87.694-5.162,4.03-9.437,4.177-15.816.5-19.659-11.321-39.716-10.06-57.872,3.536C825.61,6461,818.662,6480,823.955,6502.186c5.188,21.738,19.581,35.437,41.578,39.869,20.207,4.071,37.576-2.283,50.813-17.959,13.17-15.6,15.989-33.554,9.188-52.851-.749-2.124-.543-3.455,1.122-4.86,1.752-1.479,3.33-3.163,5-4.741a3.786,3.786,0,0,1,.791-.45c12.209,21.269,10.362,57.762-18.176,79.64-26.97,20.675-65.942,16.145-87.874-10.23a63.982,63.982,0,0,1,6.472-88.217C858.769,6419.106,896.56,6421.955,918.426,6442.592Z" fill="url(#a)"/><path d="M867.843,6498.356c17.795-30.784,45.281-47.692,76-60.412,2.734-1.132,5.771-1.533,8.667-2.273l.34.772c-.752.61-1.481,1.251-2.259,1.826a275.992,275.992,0,0,0-32.417,28.537,221.571,221.571,0,0,0-26.561,33.491c-4.582,6.917-8.642,14.185-12.824,21.36-3.847,6.6-8.692,7.976-14.646,3.094a61.806,61.806,0,0,1-10.964-11.861c-4.4-6.175-8.138-12.83-11.987-19.381a27.476,27.476,0,0,1-2.315-6.113c-2.321-7.8,5.96-14.3,12.746-11.673a15.649,15.649,0,0,1,8.978,8.152C862.785,6488.435,865.118,6492.925,867.843,6498.356Z" fill="url(#a)"/></g></svg>