<svg xmlns="http://www.w3.org/2000/svg" xmlns:xlink="http://www.w3.org/1999/xlink" width="173.004" height="173" viewBox="0 0 173.004 173">
  <defs>
    <linearGradient id="linear-gradient" y1="0.5" x2="1" y2="0.5" gradientUnits="objectBoundingBox">
      <stop offset="0" stop-color="#4dc3ff"/>
      <stop offset="0.505" stop-color="#8733ff"/>
      <stop offset="1" stop-color="#ff31fa"/>
    </linearGradient>
  </defs>
  <path id="icono_congelar_grande" data-name="icono congelar grande" d="M1026.023,1990.157c6.944,8.409,7.738,11.447,4.158,14.826-3.6,3.394-6.5,2.547-14.023-4.126-1.23.787-.569,2.024-.617,3.014-.255,5.247-2.881,8.414-7.111,8.421-4.391.007-7.163-3.3-7.215-8.719-.047-4.835-.109-9.674.033-14.505a6.785,6.785,0,0,0-2.193-5.653c-4.133-3.9-8.133-7.954-12.088-12.041-1.529-1.579-2.889-2.617-5.09-1.125-2.3,1.559-6.667,1-5.683,5.8a11.193,11.193,0,0,1,.021,2.129c.041,5.97-1.516,12.591.576,17.725,2.084,5.114,7.827,8.738,11.972,13.01,3.7,3.81,4.125,7.781,1.162,10.887-2.943,3.084-7.1,2.8-10.863-.748-.7-.659-1.4-1.316-2.61-2.446-.515,6.2.876,13.387-7.981,13.537-4.62.077-6.213-3.3-6.741-12.924-1.7.267-2.422,1.74-3.5,2.663-3.169,2.711-7.253,2.731-9.956-.011-2.735-2.776-2.8-6.844.131-9.946,3.609-3.825,7.35-7.534,11.162-11.158a6.8,6.8,0,0,0,2.393-5.55c-.16-5.969-.127-11.946-.012-17.917.038-1.966-.375-3.474-2.458-3.709-2.632-.3-4.839-4.057-7.986-.621-4.127,4.505-8.544,8.75-12.946,12.991a5.6,5.6,0,0,0-1.676,4.569c.075,4.834.042,9.67.02,14.505-.026,5.851-2.61,9.195-7.107,9.258s-7.037-3.179-7.177-9.165c-.017-.7-.069-1.394-.135-2.664-4.654,3.674-8.6,10.279-15.049,3.86-3.333-3.32-2.3-5.991,4.418-13.761-1.1-.934-2.391-.441-3.543-.509-4.87-.29-7.974-3.037-7.961-7.129.014-4.118,3.148-7.061,7.9-7.162,5.118-.11,10.242-.126,15.358.017a6.8,6.8,0,0,0,5.641-2.223c3.908-4.13,7.949-8.139,12.042-12.088,1.6-1.545,2.611-2.947,1.073-5.088s-.763-6.421-5.377-5.655a13.75,13.75,0,0,1-2.131.017c-6.111.044-12.858-1.51-18.152.592-5.113,2.031-8.729,7.832-13,11.978-3.8,3.691-7.784,4.1-10.878,1.11s-2.8-7.055.786-10.859c.657-.7,1.309-1.4,2.415-2.58-6.211-.528-13.407.872-13.527-8.023-.063-4.582,3.3-6.154,12.8-6.708.138-1.714-1.445-2.239-2.289-3.2-2.96-3.387-3.1-7.486-.224-10.281,2.9-2.819,6.95-2.7,10.257.474,3.69,3.547,7.327,7.156,10.844,10.873a6.8,6.8,0,0,0,5.561,2.366c5.969-.155,11.946-.127,17.917-.01,1.976.039,3.452-.394,3.7-2.477.31-2.629,4.016-4.848.585-7.986-4.508-4.122-8.749-8.543-12.988-12.948a5.606,5.606,0,0,0-4.58-1.649c-4.977.068-9.955.057-14.933.014-5.458-.047-8.763-2.761-8.8-7.136s3.17-7,8.774-7.153c.835-.023,1.672,0,3.146,0-3.731-4.77-10.373-8.678-3.976-15.157,3.372-3.414,6.071-2.4,13.63,4.305,1.307-.741.62-2,.666-2.982.245-5.249,2.863-8.414,7.1-8.421,4.394-.007,7.163,3.3,7.214,8.72.046,4.834.11,9.673-.032,14.5a6.784,6.784,0,0,0,2.2,5.65c4.133,3.905,8.133,7.955,12.087,12.043,1.528,1.58,2.885,2.626,5.087,1.134,2.3-1.56,6.668-1.005,5.688-5.8a11.282,11.282,0,0,1-.019-2.129c-.043-5.969,1.512-12.59-.581-17.725-2.084-5.113-7.826-8.738-11.971-13.01-3.718-3.832-4.142-7.76-1.163-10.879,3.049-3.192,7.133-2.815,11.164,1.024.6.567,1.205,1.117,2.286,2.116.593-5.966-.912-13.527,7.561-13.376,8.1.145,6.887,7.336,7.081,13.547,1.606-1.508,2.583-2.474,3.612-3.382,3.131-2.76,7.254-2.761,9.946-.027,2.731,2.774,2.8,6.856-.125,9.953-3.608,3.826-7.349,7.533-11.161,11.159a6.8,6.8,0,0,0-2.4,5.547c.164,5.968.113,11.945.023,17.917-.03,1.919.307,3.5,2.435,3.717,2.638.269,4.843,4.059,7.992.627,4.13-4.5,8.545-8.748,12.949-12.989a5.593,5.593,0,0,0,1.674-4.568c-.075-4.834-.045-9.671-.022-14.506.027-5.853,2.607-9.2,7.1-9.264s7.065,3.184,7.2,9.156c.016.7,0,1.409,0,2.817,4.735-3.739,8.587-10.517,15.1-4.1,3.435,3.382,2.358,6.316-4.392,13.824,1.242,1.036,2.683.447,3.958.548,4.556.358,7.568,3.131,7.585,7.07.018,4.119-3.111,7.1-7.849,7.212-5.117.117-10.244.161-15.357-.026a7.166,7.166,0,0,0-5.949,2.512c-3.909,4.129-7.954,8.135-12.057,12.072-1.562,1.5-2.2,2.9-.82,4.774,1.557,2.1.648,6.112,5.346,5.79,5.945-.406,11.943-.211,17.911-.04a6.364,6.364,0,0,0,5.157-2.307c3.448-3.588,6.984-7.093,10.544-10.572s7.525-3.786,10.563-.909c3.1,2.937,2.826,7.115-.709,10.864-.662.7-1.322,1.407-2.444,2.6,5.974.6,13.522-.907,13.4,7.551-.117,8.188-7.417,6.752-13.405,7.251,1.356,1.444,2.321,2.42,3.228,3.447,2.763,3.128,2.765,7.236.032,9.944-2.775,2.748-6.839,2.823-9.942-.1-3.826-3.608-7.533-7.35-11.159-11.16a6.8,6.8,0,0,0-5.544-2.405c-5.969.164-11.946.108-17.917.023-1.905-.027-3.509.268-3.731,2.419-.272,2.639-4.062,4.845-.634,7.994,4.5,4.133,8.748,8.544,12.991,12.946a5.591,5.591,0,0,0,4.562,1.691c4.834-.076,9.67-.042,14.505-.02,5.859.025,9.2,2.6,9.277,7.089.075,4.508-3.168,7.062-9.145,7.21C1027.918,1990.057,1027.217,1990.1,1026.023,1990.157Zm-57.571-31.819c7.682.492,14.75-5.973,15.354-14.043.574-7.66-5.827-14.757-13.933-15.449-7.789-.666-15.142,6.058-15.574,14.24C953.892,1950.8,960.409,1957.824,968.452,1958.338Z" transform="translate(-882.498 -1857.143)" fill="url(#linear-gradient)"/>
</svg>
