<svg xmlns="http://www.w3.org/2000/svg" width="51.467" height="56.599" viewBox="0 0 52.467 55.599"><path d="M539.935,925.324a25.726,25.726,0,0,0-.894-5.2,26.362,26.362,0,0,0-6.118-10.89c-.383-.415-.772-.83-1.179-1.218-.313-.3-.673-.562-1.005-.848a25.456,25.456,0,0,0-7.228-4.353,26.341,26.341,0,0,0-14.773-1.393,25.722,25.722,0,0,0-8.529,3.3,22.4,22.4,0,0,0-3.325,2.4l-.041.042a.732.732,0,0,0-.3.265l-.019,0-.006.02a.678.678,0,0,0-.309.276l-.013,0,0,.016-.323.262-.111.121a.863.863,0,0,0-.264.257c-.016,0-.021.014-.017.031a.887.887,0,0,0-.291.274h0a1.291,1.291,0,0,0-.308.309l-.079.088a1.313,1.313,0,0,0-.392.417l-.042.047a1.243,1.243,0,0,0-.351.361c-.14.2.161.232.173.382-.277-.3-.333-.3-.527.065-.037.008-.045.029-.026.061-.3.19-.325.27-.126.517-.234-.2-.264-.187-.441.157l-.036.047a.7.7,0,0,0-.283.376c-.028.011-.045.027-.03.06a5.275,5.275,0,0,0-.751,1.008,20.25,20.25,0,0,0-1.415,2.367,25.965,25.965,0,0,0-2.216,5.772,26.411,26.411,0,0,0-.8,7,25.755,25.755,0,0,0,.731,5.661,26.271,26.271,0,0,0,4.862,10c.124.159.213.359.418.446a.077.077,0,0,0,.05.087.988.988,0,0,0,.242.341,26.321,26.321,0,0,0,19.357,9.16,25.6,25.6,0,0,0,9.457-1.546.575.575,0,0,1,.527.026q3.445,1.883,6.9,3.747l1.67.9c0-.437.01-.847,0-1.256q-.111-4.273-.232-8.545a.533.533,0,0,1,.2-.437,26.259,26.259,0,0,0,3.33-3.782,26.813,26.813,0,0,0,2.258-3.764,26.226,26.226,0,0,0,2.63-13.43ZM494.584,909.66a.368.368,0,0,1,.039.064A.368.368,0,0,0,494.584,909.66Zm.41,32.005h0l.009.022Zm15.118-13.4.005.01Zm6.047,13.754a2.854,2.854,0,0,1-3.44,1.149h0a3.561,3.561,0,0,1-1.315-1,3.318,3.318,0,0,1-.519-2.086,2.979,2.979,0,0,1,2.6-2.528,2.9,2.9,0,0,1,3.13,2.363A2.751,2.751,0,0,1,516.159,942.016Zm2.811-29.524c-.132,1.244-.252,2.488-.375,3.732-.107,1.076-.209,2.153-.318,3.229-.138,1.375-.283,2.749-.421,4.124-.141,1.4-.276,2.807-.416,4.211-.161,1.608-.327,3.216-.488,4.825-.087.866-.175,1.732-.248,2.6-.019.229-.086.308-.334.307q-2.611-.013-5.224.012c-.261,0-.3-.094-.32-.317-.123-1.233-.227-2.468-.378-3.7-.123-1.013-.2-2.031-.291-3.047-.006-.065-.022-.128-.033-.192h0l.007-.017-.018-.011a.061.061,0,0,0-.008-.044l-.011-.152c-.02-.724-.127-1.441-.2-2.161-.116-1.244-.243-2.488-.367-3.731q-.178-1.794-.361-3.587c-.089-.888-.175-1.777-.264-2.665-.106-1.063-.217-2.126-.318-3.19-.046-.48-.038-.478.439-.479q4.137,0,8.275-.009c.479,0,.959.014,1.439.005C518.945,912.232,518.992,912.293,518.97,912.492Z" transform="translate(-487.533 -900.939)" fill="#7757ff"/></svg>