<svg xmlns="http://www.w3.org/2000/svg" width="45.784" height="57.928" viewBox="0 0 45.784 57.928">
  <g id="icono_generación_de_extractos" data-name="icono generación de extractos" transform="translate(-726.871 -3261.071)">
    <path id="Trazado_83" data-name="Trazado 83" d="M765.411,3293.7q0,9.863,0,19.723c-.006,3.74-1.831,5.55-5.59,5.554-6.631.008-13.264.064-19.893-.058a5.7,5.7,0,0,1-3.3-1.326c-2.872-2.441-5.562-5.094-8.363-7.621a3.868,3.868,0,0,1-1.388-3.133c.044-11.033.02-22.066.028-33.1,0-3.488,1.9-5.393,5.406-5.4q13.891-.023,27.783,0c3.462.008,5.307,1.854,5.317,5.293C765.424,3280.326,765.411,3287.015,765.411,3293.7Zm-4.854-20.483H731.825v29.674c3.011,0,5.916-.013,8.82,0,2.253.013,3.083.854,3.1,3.121.015,2.669,0,5.339,0,8.09h16.813Zm-27.61,34.545,5.86,5.411v-5.411Z" fill="#7757ff"/>
    <path id="Trazado_84" data-name="Trazado 84" d="M767.933,3265.874H734.2c.3-2.989,2.023-4.751,4.785-4.766q14.406-.073,28.813,0a4.64,4.64,0,0,1,4.834,4.9q.052,20.409,0,40.818c-.007,2.854-1.7,4.546-4.7,4.759Z" fill="#7757ff"/>
    <path id="Trazado_85" data-name="Trazado 85" d="M736.6,3281.062v-2.14h19.062v2.14Z" fill="#7757ff"/>
    <path id="Trazado_86" data-name="Trazado 86" d="M736.575,3288.321v-2.147H755.7v2.147Z" fill="#7757ff"/>
    <path id="Trazado_87" data-name="Trazado 87" d="M755.7,3293.388v2.173H736.624v-2.173Z" fill="#7757ff"/>
  </g>
</svg>
