<svg xmlns="http://www.w3.org/2000/svg" width="39.549" height="19.541" viewBox="0 0 39.549 19.541">
  <g id="icono_información_para_el_pago" data-name="icono información para el pago" transform="translate(-477.901 -3023.414)" style="mix-blend-mode: darken;isolation: isolate">
    <path id="Trazado_59" data-name="Trazado 59" d="M497.657,3042.955H480.794a2.79,2.79,0,0,1-2.893-2.892V3026.3a2.811,2.811,0,0,1,3.021-2.882c.562.024,1.126,0,1.689,0l11.156,0H514.6a2.789,2.789,0,0,1,2.841,2.8q.011,6.968,0,13.936a2.78,2.78,0,0,1-2.838,2.8Zm-18.467-7.471c.222.036.41.061.6.1a6.814,6.814,0,0,1,5.528,5.74c.048.3.15.361.426.36q5.262-.012,10.524-.006,6.694,0,13.391,0c.2,0,.33,0,.365-.265a6.819,6.819,0,0,1,5.449-5.813c.222-.046.447-.079.663-.117a.666.666,0,0,0,.023-.106c0-1.386,0-2.772.006-4.158,0-.192-.1-.205-.246-.226a6.852,6.852,0,0,1-5.866-5.639c-.038-.212-.066-.427-.1-.658H485.953c-.544,0-.544,0-.633.531a6.84,6.84,0,0,1-5.874,5.761c-.215.031-.26.106-.259.306.008,1.2,0,2.389,0,3.584ZM511.3,3024.7c-.133,2.221,2.75,5.169,4.849,4.984.005-.081.015-.165.015-.249,0-1.059,0-2.118,0-3.178a1.513,1.513,0,0,0-1.556-1.556c-.544,0-1.089,0-1.633,0Zm-32.088,5.008a5.436,5.436,0,0,0,4.828-5.008h-.28q-1.461,0-2.922,0a1.516,1.516,0,0,0-1.642,1.643c0,1.031,0,2.062,0,3.093C479.191,3029.517,479.2,3029.6,479.207,3029.705Zm32.1,11.945a1.017,1.017,0,0,0,.163.025c1.07,0,2.141.013,3.211,0a1.5,1.5,0,0,0,1.476-1.49c.01-1.06,0-2.121,0-3.181a1.168,1.168,0,0,0-.029-.186A5.483,5.483,0,0,0,511.306,3041.65Zm-27.266.013a5.46,5.46,0,0,0-4.826-4.836,2.007,2.007,0,0,0-.022.219c0,1.022-.011,2.043,0,3.064a1.5,1.5,0,0,0,1.6,1.566c.983,0,1.966,0,2.949,0C483.837,3041.676,483.93,3041.668,484.04,3041.663Z" fill="#7757ff"/>
    <path id="Trazado_60" data-name="Trazado 60" d="M497.223,3027.883c0-.14-.005-.339,0-.538a.632.632,0,0,1,.613-.63.592.592,0,0,1,.642.618c-.068.539.157.734.648.863a2.876,2.876,0,0,1,1.537,1.1.646.646,0,1,1-1.015.788,2.525,2.525,0,0,0-3.629-.182,1.359,1.359,0,0,0,0,1.975,2.425,2.425,0,0,0,1.715.68,3.691,3.691,0,0,1,2.224.807,2.667,2.667,0,0,1-.171,4.4,5.577,5.577,0,0,1-1.078.522c-.159.065-.234.132-.221.3a3.5,3.5,0,0,1,0,.458.635.635,0,0,1-1.27-.012c-.025-.564-.027-.555-.583-.7a3.4,3.4,0,0,1-1.947-1.233.664.664,0,0,1,.065-.969.657.657,0,0,1,.951.183,2.547,2.547,0,0,0,3.55.241,1.413,1.413,0,0,0-.251-2.314,2.833,2.833,0,0,0-1.442-.415,3.553,3.553,0,0,1-2.543-1.15,2.674,2.674,0,0,1,.786-4.213A12.353,12.353,0,0,1,497.223,3027.883Z" fill="#7757ff"/>
  </g>
</svg>
