<svg xmlns="http://www.w3.org/2000/svg" xmlns:xlink="http://www.w3.org/1999/xlink" width="59.194" height="62.225" viewBox="0 0 69.194 72.225">
  <defs>
    <linearGradient id="linear-gradient" y1="0.5" x2="1" y2="0.5" gradientUnits="objectBoundingBox">
      <stop offset="0" stop-color="#4dc3ff"/>
      <stop offset="0.505" stop-color="#8733ff"/>
      <stop offset="1" stop-color="#ff31fa"/>
    </linearGradient>
    <linearGradient id="linear-gradient-4" x1="0" y1="0.5" x2="1" y2="0.5" xlink:href="#linear-gradient"/>
    <linearGradient id="linear-gradient-5" x1="0" y1="0.5" x2="1" y2="0.5" xlink:href="#linear-gradient"/>
  </defs>
  <g id="icono_nuevo_pin_mediano" data-name="icono nuevo pin mediano" transform="translate(-737.049 -8006.775)">
    <g id="Grupo_183" data-name="Grupo 183">
      <path id="Trazado_306" data-name="Trazado 306" d="M762.786,8039.879h22.522c0,.078.011.15.011.223,0,1.573.01,3.146,0,4.719-.006.841-.007,1.686-.085,2.523a10.509,10.509,0,0,1-2,5.246,11.036,11.036,0,0,1-7.125,4.547,10.812,10.812,0,0,1-7.058-.984,11.057,11.057,0,0,1-6.059-7.912,10.581,10.581,0,0,1-.205-2.057c-.026-2.043-.01-4.088-.009-6.132C762.776,8040,762.781,8039.949,762.786,8039.879Zm9.438,9.646c0,.387,0,.775,0,1.162a1.829,1.829,0,1,0,3.652-.181c0-.722-.007-1.443,0-2.164a.405.405,0,0,1,.112-.268,3.019,3.019,0,0,0-2.554-5.264,3.025,3.025,0,0,0-1.349,5.248.445.445,0,0,1,.131.282C772.233,8048.734,772.224,8049.13,772.224,8049.525Z" fill="url(#linear-gradient)"/>
      <path id="Trazado_307" data-name="Trazado 307" d="M784.543,8037.646h-3.806c0-.136,0-.269,0-.4-.007-.919.016-1.84-.028-2.758a4.494,4.494,0,0,0-3.5-4.1,4.177,4.177,0,0,0-.833-.1c-1.573-.008-3.147-.033-4.719.008a4.284,4.284,0,0,0-3.381,1.791,4.5,4.5,0,0,0-.92,2.824v2.725h-3.8v-.2c0-.935-.005-1.87,0-2.805a8.355,8.355,0,0,1,6.629-8,12.211,12.211,0,0,1,2.447-.174c1.216,0,2.433-.028,3.648.007a8.186,8.186,0,0,1,7.123,4.137,7.679,7.679,0,0,1,1.076,3.136,15.707,15.707,0,0,1,.062,1.682C784.551,8036.156,784.543,8036.892,784.543,8037.646Z" fill="url(#linear-gradient)"/>
      <g id="Grupo_182" data-name="Grupo 182">
        <g id="Grupo_178" data-name="Grupo 178">
          <path id="Trazado_308" data-name="Trazado 308" d="M757.77,8064.438l1.221-1.819-1.9-.6.434-1.358,1.928.788-.109-2.064H761l-.108,2.064,1.927-.788.407,1.358-1.873.6,1.222,1.819-1.2.814-1.194-1.927-1.222,1.927Z" fill="url(#linear-gradient)"/>
        </g>
        <g id="Grupo_179" data-name="Grupo 179">
          <path id="Trazado_309" data-name="Trazado 309" d="M767.028,8064.438l1.222-1.819-1.9-.6.434-1.358,1.928.788-.109-2.064h1.656l-.109,2.064,1.928-.788.407,1.358-1.873.6,1.221,1.819-1.194.814-1.194-1.927-1.222,1.927Z" fill="url(#linear-gradient-4)"/>
        </g>
        <g id="Grupo_180" data-name="Grupo 180">
          <path id="Trazado_310" data-name="Trazado 310" d="M776.287,8064.438l1.222-1.819-1.9-.6.435-1.358,1.927.788-.109-2.064h1.656l-.108,2.064,1.927-.788.407,1.358-1.873.6,1.222,1.819-1.2.814-1.194-1.927-1.222,1.927Z" fill="url(#linear-gradient-5)"/>
        </g>
        <g id="Grupo_181" data-name="Grupo 181">
          <path id="Trazado_311" data-name="Trazado 311" d="M785.545,8064.438l1.222-1.819-1.9-.6.434-1.358,1.928.788-.109-2.064h1.656l-.108,2.064,1.927-.788.407,1.358-1.873.6,1.222,1.819-1.2.814-1.194-1.927-1.222,1.927Z" fill="url(#linear-gradient)"/>
        </g>
      </g>
    </g>
    <path id="Trazado_312" data-name="Trazado 312" d="M800.951,8011.371l-2.259,4.473c-.909-.666-1.653-1.206-2.392-1.754a37.587,37.587,0,0,0-41.606-1.962,36.487,36.487,0,0,0-17.1,37.6,35.561,35.561,0,0,0,29.065,28.84,34.4,34.4,0,0,0,36.246-18.248,28.582,28.582,0,0,0,3.338-12.527c-3.007,20.26-23.126,32.984-42.319,26.675a31.055,31.055,0,0,1-20.495-36.515A29.71,29.71,0,0,1,777.2,8015.46a27.06,27.06,0,0,1,14.615,7.252l-4.731,2.344,18.7,4.608Z" fill="url(#linear-gradient)"/>
  </g>
</svg>
