<svg xmlns="http://www.w3.org/2000/svg" xmlns:xlink="http://www.w3.org/1999/xlink" width="54.707" height="62.602" viewBox="0 0 54.707 62.602">
  <defs>
    <linearGradient id="linear-gradient" y1="0.5" x2="1" y2="0.5" gradientUnits="objectBoundingBox">
      <stop offset="0" stop-color="#4dc3ff"/>
      <stop offset="0.505" stop-color="#8733ff"/>
      <stop offset="1" stop-color="#ff31fa"/>
    </linearGradient>
    <linearGradient id="linear-gradient-5" x1="0" y1="0.5" x2="1" y2="0.5" xlink:href="#linear-gradient"/>
  </defs>
  <g id="iconopin_actual_mediano" data-name="iconopin actual mediano" transform="translate(-744.293 -7717.549)">
    <g id="Grupo_190" data-name="Grupo 190">
      <path id="Trazado_313" data-name="Trazado 313" d="M753.479,7739.217h36.335c.006.126.018.243.018.359,0,2.538.015,5.076,0,7.614-.01,1.357-.012,2.72-.137,4.069a16.967,16.967,0,0,1-3.225,8.465,17.81,17.81,0,0,1-11.5,7.335,17.436,17.436,0,0,1-11.386-1.588,17.843,17.843,0,0,1-9.775-12.764,16.983,16.983,0,0,1-.33-3.318c-.042-3.3-.016-6.6-.016-9.893C753.463,7739.413,753.473,7739.329,753.479,7739.217Zm15.228,15.561c0,.625,0,1.25,0,1.875a2.95,2.95,0,1,0,5.891-.292c-.005-1.164-.011-2.328,0-3.492a.657.657,0,0,1,.181-.431,4.872,4.872,0,0,0-4.12-8.493,4.88,4.88,0,0,0-2.176,8.467.721.721,0,0,1,.211.455C768.72,7753.5,768.706,7754.141,768.707,7754.778Z" fill="url(#linear-gradient)"/>
      <path id="Trazado_314" data-name="Trazado 314" d="M788.581,7735.615h-6.142c0-.219,0-.434,0-.649-.011-1.483.024-2.968-.045-4.449a7.253,7.253,0,0,0-5.645-6.609,6.68,6.68,0,0,0-1.343-.165c-2.538-.014-5.077-.054-7.613.012a6.912,6.912,0,0,0-5.454,2.89,7.235,7.235,0,0,0-1.484,4.555c0,1.458,0,2.916,0,4.4h-6.138v-.325c0-1.508-.009-3.016.006-4.524a13.479,13.479,0,0,1,10.7-12.9,19.582,19.582,0,0,1,3.948-.28c1.962,0,3.925-.046,5.885.01a13.209,13.209,0,0,1,11.491,6.675,12.388,12.388,0,0,1,1.735,5.06,25.543,25.543,0,0,1,.1,2.713C788.592,7733.211,788.581,7734.4,788.581,7735.615Z" fill="url(#linear-gradient)"/>
      <g id="Grupo_189" data-name="Grupo 189">
        <g id="Grupo_185" data-name="Grupo 185">
          <path id="Trazado_315" data-name="Trazado 315" d="M745.388,7778.837l1.971-2.934-3.066-.964.7-2.19,3.11,1.27-.175-3.328H750.6l-.175,3.328,3.11-1.27.656,2.19-3.021.964,1.97,2.934-1.927,1.314-1.926-3.11-1.971,3.11Z" fill="url(#linear-gradient)"/>
        </g>
        <g id="Grupo_186" data-name="Grupo 186">
          <path id="Trazado_316" data-name="Trazado 316" d="M760.324,7778.837l1.971-2.934-3.066-.964.7-2.19,3.11,1.27-.176-3.328h2.672l-.175,3.328,3.109-1.27.657,2.19-3.022.964,1.971,2.934-1.927,1.314-1.927-3.11-1.971,3.11Z" fill="url(#linear-gradient)"/>
        </g>
        <g id="Grupo_187" data-name="Grupo 187">
          <path id="Trazado_317" data-name="Trazado 317" d="M775.261,7778.837l1.971-2.934-3.066-.964.7-2.19,3.11,1.27-.175-3.328h2.671l-.175,3.328,3.11-1.27.656,2.19-3.021.964,1.97,2.934-1.927,1.314-1.926-3.11-1.971,3.11Z" fill="url(#linear-gradient-5)"/>
        </g>
        <g id="Grupo_188" data-name="Grupo 188">
          <path id="Trazado_318" data-name="Trazado 318" d="M790.2,7778.837l1.971-2.934-3.066-.964.7-2.19,3.11,1.27-.176-3.328h2.672l-.175,3.328,3.109-1.27.657,2.19-3.022.964,1.971,2.934-1.927,1.314-1.927-3.11-1.971,3.11Z" fill="url(#linear-gradient)"/>
        </g>
      </g>
    </g>
  </g>
</svg>
