<svg xmlns="http://www.w3.org/2000/svg" width="88.632" height="27.175" viewBox="0 0 88.632 27.175">
  <g id="logotipo_VISA" data-name="logotipo VISA" transform="translate(-119.96 -2784)">
    <g id="Grupo_3" data-name="Grupo 3">
      <path id="Trazado_8" data-name="Trazado 8" d="M151.184,2810.784l4.487-26.327h7.176l-4.49,26.327Z" fill="#1a1f71"/>
      <path id="Trazado_9" data-name="Trazado 9" d="M184.383,2785.106a18.52,18.52,0,0,0-6.432-1.106c-7.09,0-12.085,3.571-12.127,8.688-.04,3.783,3.565,5.893,6.287,7.153,2.793,1.29,3.733,2.113,3.719,3.265-.017,1.765-2.23,2.571-4.293,2.571a15.036,15.036,0,0,1-6.754-1.382l-.925-.418-1.007,5.893a22.714,22.714,0,0,0,7.993,1.405c7.543,0,12.44-3.53,12.5-9,.027-2.994-1.885-5.274-6.025-7.153-2.508-1.217-4.044-2.03-4.028-3.263,0-1.095,1.3-2.265,4.109-2.265a13.231,13.231,0,0,1,5.371,1.009l.643.3.973-5.706" fill="#1a1f71"/>
      <path id="Trazado_10" data-name="Trazado 10" d="M202.784,2784.483h-5.545c-1.718,0-3,.468-3.758,2.183l-10.657,24.127h7.535s1.233-3.244,1.511-3.957c.824,0,8.144.012,9.19.012.215.921.873,3.945.873,3.945h6.659l-5.808-26.31m-8.849,16.969c.594-1.517,2.859-7.36,2.859-7.36-.042.07.589-1.524.952-2.513l.485,2.27s1.374,6.285,1.661,7.6Z" fill="#1a1f71"/>
      <path id="Trazado_11" data-name="Trazado 11" d="M145.165,2784.477l-7.025,17.953-.749-3.649c-1.307-4.206-5.382-8.762-9.938-11.043l6.424,23.024,7.592-.009,11.3-26.276h-7.6" fill="#1a1f71"/>
      <path id="Trazado_12" data-name="Trazado 12" d="M131.623,2784.46H120.051l-.091.548c9,2.179,14.959,7.446,17.431,13.773l-2.516-12.1c-.434-1.667-1.694-2.164-3.252-2.223" fill="#1a1f71"/>
    </g>
  </g>
</svg>
