<svg xmlns="http://www.w3.org/2000/svg" width="179.006" height="143.573" viewBox="0 0 179.006 143.573">
  <g id="logo_id_color_blanco" data-name="logo id color blanco" transform="translate(-57.494 -48)">
    <g id="Grupo_1" data-name="Grupo 1" transform="translate(0 -2396)">
      <path id="Trazado_1" data-name="Trazado 1" d="M108.306,2480.935h-3.22a9.83,9.83,0,0,0-9.831,9.83v13.541h22.88v-23.371Z" fill="#fcfcfc"/>
      <path id="Trazado_2" data-name="Trazado 2" d="M130.393,2504.306s28.151,1.588,34.055,21a39.48,39.48,0,0,0,1.082-9.388q0-34.127-40.564-34.96v23.344h5.427Z" fill="#fcfcfc"/>
      <path id="Trazado_3" data-name="Trazado 3" d="M95.255,2542.885a9.83,9.83,0,0,0,9.831,9.83H122.8a61.809,61.809,0,0,0,9.052-.639c-9.533-2.942-12.44-15.385-13.325-22.732h-.387v-18.208H95.255Z" fill="#fcfcfc"/>
      <path id="Trazado_4" data-name="Trazado 4" d="M134.072,2551.556a42.041,42.041,0,0,0,19.522-8.919,32.178,32.178,0,0,0,10.2-15.655c-4.153-10.567-15.1-15.415-23.365-17.584a11.867,11.867,0,0,1,2.225,7.112,11.588,11.588,0,0,1-4.163,9.318,16.079,16.079,0,0,1-10.743,3.516h-5.876C122.715,2536.376,125.482,2547.987,134.072,2551.556Z" fill="#fcfcfc"/>
      <path id="Trazado_5" data-name="Trazado 5" d="M67.581,2472.383h8.21V2462.3H85.877v-8.21H75.791V2444h-8.21v10.086H57.494v8.21H67.581Z" fill="#fcfcfc"/>
      <path id="Trazado_6" data-name="Trazado 6" d="M155.162,2454.179H93.538v8.025h61.624a26.815,26.815,0,0,1,26.786,26.786v53.2a26.816,26.816,0,0,1-26.786,26.786h-53.2a26.818,26.818,0,0,1-26.786-26.786v-62.672H67.153v62.672A34.851,34.851,0,0,0,101.964,2577h53.2a34.852,34.852,0,0,0,34.812-34.811v-53.2A34.851,34.851,0,0,0,155.162,2454.179Z" fill="#fcfcfc"/>
    </g>
    <g id="Grupo_49" data-name="Grupo 49" transform="translate(0 -2396)">
      <path id="Trazado_92" data-name="Trazado 92" d="M190.814,2548.836a16.117,16.117,0,0,0,1.558-6.965v-.018c-.135-3.565-2.1-4.314-3.741-4.314h0c-3.521.141-7.349,2.246-11.38,6.257a44.135,44.135,0,0,0-6.983,9.124c1.507-4.653,3.1-9.215,4.752-13.633a2.23,2.23,0,0,0,.108-.638,1.234,1.234,0,0,0-.418-1.013,1.4,1.4,0,0,0-1.7-.081,1.2,1.2,0,0,0-.493.853c-.284,1.1-.965,3.4-2.025,6.828-1.661,5.329-3.645,12.024-5.9,19.9-2.093,7.4-3.155,12.791-3.154,16.046a.944.944,0,0,0,1.023.959h.013a.923.923,0,0,0,.835-.959,39.6,39.6,0,0,1,1.25-8.35c.8-3.444,1.693-6.649,2.646-9.53a25.639,25.639,0,0,0,6.628-1.033,30.23,30.23,0,0,0,6.893-2.953,28.472,28.472,0,0,0,5.91-4.565A21.588,21.588,0,0,0,190.814,2548.836ZM182.2,2541.7c2.478-1.713,4.649-2.582,6.451-2.582a1.248,1.248,0,0,1,1.17.617,3.274,3.274,0,0,1,.45,1.757,15.071,15.071,0,0,1-3.77,9.836,29.672,29.672,0,0,1-9.308,7.368,24.431,24.431,0,0,1-9.235,2.671,55.542,55.542,0,0,1,6.593-11.9A34.593,34.593,0,0,1,182.2,2541.7Z" fill="#333"/>
      <path id="Trazado_93" data-name="Trazado 93" d="M235.71,2563h-.073a.532.532,0,0,0-.38.143,110.339,110.339,0,0,1-13.417,7.516c-2.641,1.327-4.152,2.089-5.023,2.533a27.036,27.036,0,0,0,1.712-7.863,2.513,2.513,0,0,0-.509-1.659,1.77,1.77,0,0,0-1.3-.67,2.57,2.57,0,0,0-1.552.724c-.5.414-.951.809-1.336,1.173q-.263.235-1.59,1.475a3.468,3.468,0,0,1-2.108,1.107c-.131-.024-.375-.07-.375-.7a5.686,5.686,0,0,1,.575-2.836,2.958,2.958,0,0,0,.295-1.087c-.015-.211-.143-.9-1.2-.9-.792,0-1.008.482-1.034.606-.138.293-.26.587-.37.882-4.948,2.616-9.026,3.941-12.126,3.941-1.7,0-2.461-.688-2.461-2.229a1.129,1.129,0,0,0-2.034-.593,19.36,19.36,0,0,1-2.057,1.943,2.6,2.6,0,0,1-1.251.678s-.086-.084-.086-.46a3.207,3.207,0,0,1,.513-1.465,6.962,6.962,0,0,1,1.342-1.679,2.037,2.037,0,0,1,1.258-.653c.473.014.473.159.473.312a.724.724,0,0,0,.205.529.856.856,0,0,0,.295.2,1.035,1.035,0,0,0,.675.021.668.668,0,0,0,.492-.716,2.648,2.648,0,0,0-.484-1.567,2.012,2.012,0,0,0-1.757-.763,4.026,4.026,0,0,0-2.551.983,8.171,8.171,0,0,0-1.886,2.181,4.741,4.741,0,0,0-.765,2.382c.1,2.006,1.39,2.306,2.153,2.306a5.156,5.156,0,0,0,3.127-1.7q.21-.194.377-.351a3.215,3.215,0,0,0,1.209,1.487,5.617,5.617,0,0,0,3.184.8c3.128,0,7.039-1.188,11.639-3.534a9.109,9.109,0,0,0-.09,1.272c.013.856.373,2.292,2.619,2.292a4.259,4.259,0,0,0,2.5-.924,15.762,15.762,0,0,0,1.789-1.477c1.132-1.06,1.76-1.582,2.09-1.837,0,2.559-.845,5.894-2.507,9.915a51.415,51.415,0,0,0-6.806,4.361c-2.586,1.852-3.9,3.806-3.9,5.806a2.525,2.525,0,0,0,.8,2.019,2.672,2.672,0,0,0,1.793.658c2.08,0,4.053-1.322,5.868-3.93a39.926,39.926,0,0,0,4.312-8.2q1.594-.825,3.055-1.6c1.044-.541,2.214-1.141,3.5-1.794a118.727,118.727,0,0,0,13.688-7.669.934.934,0,0,0,.184-.246.782.782,0,0,0-.706-1.135Zm0,.5Zm-27.573,21.189a3.559,3.559,0,0,1-2.3,1.3,1,1,0,0,1-.727-.251,1.151,1.151,0,0,1-.254-.846c0-1.48,1.438-4,8.057-7.759a41.48,41.48,0,0,1-1.962,3.745A19.708,19.708,0,0,1,208.137,2584.689Z" fill="#333"/>
    </g>
  </g>
</svg>
