<svg xmlns="http://www.w3.org/2000/svg" xmlns:xlink="http://www.w3.org/1999/xlink" width="40.66" height="21.448" viewBox="0 0 40.66 21.448">
  <defs>
    <linearGradient id="linear-gradient" y1="0.5" x2="1" y2="0.5" gradientUnits="objectBoundingBox">
      <stop offset="0" stop-color="#a732c2"/>
      <stop offset="0.539" stop-color="#803bc1"/>
      <stop offset="1" stop-color="#5780c3"/>
    </linearGradient>
  </defs>
  <g id="Grupo_924" data-name="Grupo 924" transform="translate(-75.213 -35.407)">
    <path id="Trazado_2534" data-name="Trazado 2534" d="M115.872,53.911a3.933,3.933,0,0,1-1.678,2.369,3.845,3.845,0,0,1-2.075.572q-16.562.006-33.124,0a3.683,3.683,0,0,1-3.734-2.987,3.859,3.859,0,0,1-.047-.79q0-6.942,0-13.884a3.645,3.645,0,0,1,3.743-3.775c1.229-.017,2.46,0,3.689,0q14.658,0,29.316,0a3.815,3.815,0,0,1,3.245,1.516,4.887,4.887,0,0,1,.666,1.43ZM95.6,36.945q-8.291,0-16.582,0a2.151,2.151,0,0,0-2.32,2.333q0,6.863,0,13.726a2.149,2.149,0,0,0,2.3,2.317q16.563,0,33.125,0a2.782,2.782,0,0,0,.629-.054,2.149,2.149,0,0,0,1.669-2.219c0-4.549-.022-9.1.015-13.647a2.327,2.327,0,0,0-2.45-2.474C106.522,36.972,101.06,36.945,95.6,36.945Z" fill="url(#linear-gradient)"/>
    <path id="Trazado_2535" data-name="Trazado 2535" d="M99.793,57.895h-14.2c-.743,0-.877-.116-1.011-.86a1.28,1.28,0,0,0-1.2-1.128c-.591-.064-.831-.322-.835-.938-.008-1.084,0-2.169,0-3.254q0-3.035,0-6.07c0-.752.176-.95.917-1.062a1.262,1.262,0,0,0,1.071-1.071c.132-.789.329-.961,1.123-.961h28.17c.842,0,1,.131,1.16.95a1.278,1.278,0,0,0,1.192,1.089c.577.063.833.318.834.9q.01,4.761,0,9.522c0,.578-.255.83-.835.9a1.243,1.243,0,0,0-1.155,1.115c-.12.712-.3.872-1.022.872ZM95.12,56.419a7.889,7.889,0,0,1-2.969-6.188,7.6,7.6,0,0,1,3.044-6.112,1.3,1.3,0,0,0-.185-.039q-4.364,0-8.728-.005a.392.392,0,0,0-.416.281A2.645,2.645,0,0,1,84.4,45.846a.48.48,0,0,0-.331.513q.011,3.888,0,7.775a.48.48,0,0,0,.329.514,2.515,2.515,0,0,1,1.407,1.382.566.566,0,0,0,.626.4c2.645-.011,5.289-.006,7.934-.006Zm9.266-12.271a7.679,7.679,0,0,1-.035,12.233,1.838,1.838,0,0,0,.22.036q4.344,0,8.688.006a.419.419,0,0,0,.44-.307,2.579,2.579,0,0,1,1.4-1.44.559.559,0,0,0,.38-.6q-.017-3.828,0-7.657a.558.558,0,0,0-.39-.6,2.445,2.445,0,0,1-1.343-1.339.59.59,0,0,0-.658-.409c-2.764.012-5.528.006-8.292.009A.579.579,0,0,0,104.386,44.148Zm-4.588-.01a6.109,6.109,0,1,0,6.088,6.14A6.045,6.045,0,0,0,99.8,44.138Z" transform="translate(-4.221 -4.115)" fill="url(#linear-gradient)"/>
    <path id="Trazado_2536" data-name="Trazado 2536" d="M118.087,54.6a2.96,2.96,0,0,0-.027-1.057c-.134-.326-.6-.25-.915-.363a1.832,1.832,0,0,1-1.372-1.533,2.091,2.091,0,0,1,.82-1.956,3.2,3.2,0,0,1,1.215-.65.359.359,0,0,0,.307-.427,3.024,3.024,0,0,1,.008-.554.747.747,0,0,1,.713-.674.769.769,0,0,1,.75.682c.042.265-.136.606.119.78a2.412,2.412,0,0,0,.76.19,3.2,3.2,0,0,1,.96.361.626.626,0,0,1,.268.825.563.563,0,0,1-.751.33c-.345-.089-.689-.183-1.032-.279-.2-.057-.329-.037-.323.225.011.529.01,1.057,0,1.586a.317.317,0,0,0,.29.356,5.531,5.531,0,0,1,.971.336,2.175,2.175,0,0,1,.462,3.6,3.1,3.1,0,0,1-1.4.7.334.334,0,0,0-.318.4,3.115,3.115,0,0,1-.008.515.749.749,0,0,1-.746.682.77.77,0,0,1-.717-.675c-.042-.267.12-.592-.108-.792-.208-.181-.532-.116-.8-.194a4.664,4.664,0,0,1-1.184-.44.629.629,0,0,1-.3-.875.591.591,0,0,1,.785-.339c.432.119.868.228,1.3.351.233.067.314-.013.3-.246-.011-.29,0-.581,0-.872Zm1.5.126c0,.263,0,.527,0,.79,0,.135.017.231.2.2a1.09,1.09,0,0,0,.78-.81.853.853,0,0,0-.5-1.01c-.437-.217-.484-.19-.485.282Q119.589,54.45,119.591,54.726ZM118.112,51.2h0c0-.223,0-.447,0-.67,0-.1,0-.184-.151-.162a1.152,1.152,0,0,0-.744.9.691.691,0,0,0,.519.778c.3.115.411.027.382-.289C118.1,51.565,118.112,51.38,118.112,51.2Z" transform="translate(-23.294 -6.9)" fill="url(#linear-gradient)"/>
  </g>
</svg>
