<svg xmlns="http://www.w3.org/2000/svg" xmlns:xlink="http://www.w3.org/1999/xlink" width="32" height="32" viewBox="0 0 32 32">
  <defs>
    <linearGradient id="linear-gradient" y1="0.5" x2="1" y2="0.5" gradientUnits="objectBoundingBox">
      <stop offset="0" stop-color="#a732c2"/>
      <stop offset="0.539" stop-color="#803bc1"/>
      <stop offset="1" stop-color="#5780c3"/>
    </linearGradient>
  </defs>
  <g id="Grupo_923" data-name="Grupo 923" transform="translate(-861.383 -22.446)">
    <path id="Trazado_2532" data-name="Trazado 2532" d="M877.606,24.724a14.021,14.021,0,0,0-5.4,1.017c-.14.057-.278.118-.42.167a1.13,1.13,0,0,1-.846-2.095,14.742,14.742,0,0,1,4.474-1.247,16.006,16.006,0,0,1,17.7,13.083,15.416,15.416,0,0,1-3.632,13.226,15.245,15.245,0,0,1-9.056,5.265A16.009,16.009,0,0,1,861.6,41.009,15.707,15.707,0,0,1,864.546,28.9a1.138,1.138,0,1,1,1.829,1.35,13.749,13.749,0,0,0-1.533,13.726A13.49,13.49,0,0,0,866.68,47c.149.186.232.175.352-.018a9.089,9.089,0,0,1,4.675-3.564,15.442,15.442,0,0,1,6.415-1.013,14.182,14.182,0,0,1,7.093,2.094,7.531,7.531,0,0,1,2.464,2.414c.17.279.268.261.458.017A13.651,13.651,0,0,0,891.03,39.6a13.705,13.705,0,0,0-13.423-14.872ZM876.9,44.7a12,12,0,0,0-5.509,1.375,5.673,5.673,0,0,0-2.543,2.343c-.275.529-.272.539.206.9a13.744,13.744,0,0,0,16.739-.055.5.5,0,0,0,.169-.751,5.291,5.291,0,0,0-2.082-2.14A12.8,12.8,0,0,0,876.9,44.7Z" transform="translate(0 0)" fill="url(#linear-gradient)"/>
    <path id="Trazado_2533" data-name="Trazado 2533" d="M926.366,61.8a6.006,6.006,0,1,1-6.1-5.963,1.094,1.094,0,0,1,1.227,1.081,1.113,1.113,0,0,1-1.181,1.175,3.725,3.725,0,1,0,3.794,3.654,3.99,3.99,0,0,0-.373-1.544,1.142,1.142,0,0,1,.83-1.68,1.128,1.128,0,0,1,1.177.62A5.441,5.441,0,0,1,926.366,61.8Z" transform="translate(-42.98 -27.089)" fill="url(#linear-gradient)"/>
  </g>
</svg>
