<svg xmlns="http://www.w3.org/2000/svg" width="23.84" height="23.838" viewBox="0 0 23.84 23.838">
  <g id="Grupo_8" data-name="Grupo 8" transform="translate(-352.881 -214.945)">
    <path id="Trazado_35" data-name="Trazado 35" d="M364.96,217.071a10.006,10.006,0,0,0-3.856.726c-.1.041-.2.085-.3.119a.806.806,0,0,1-.6-1.495,10.521,10.521,0,0,1,3.193-.89,11.411,11.411,0,0,1,10.036,18.774,10.88,10.88,0,0,1-6.462,3.757,11.425,11.425,0,0,1-13.427-9.371,11.21,11.21,0,0,1,2.1-8.639.812.812,0,1,1,1.305.963,9.811,9.811,0,0,0-1.094,9.795,9.621,9.621,0,0,0,1.311,2.159c.106.132.165.125.251-.013a6.486,6.486,0,0,1,3.336-2.543,11.019,11.019,0,0,1,4.578-.723,10.12,10.12,0,0,1,5.062,1.494,5.373,5.373,0,0,1,1.758,1.723c.121.2.191.186.326.012a9.741,9.741,0,0,0,2.064-5.236,9.78,9.78,0,0,0-9.579-10.613Zm-.5,14.252a8.56,8.56,0,0,0-3.932.981,4.049,4.049,0,0,0-1.815,1.672c-.2.377-.194.385.147.64a9.808,9.808,0,0,0,11.945-.039.359.359,0,0,0,.12-.536,3.776,3.776,0,0,0-1.486-1.527A9.136,9.136,0,0,0,364.457,231.323Z" fill="#fff" stroke="#fff" stroke-width="1"/>
    <path id="Trazado_36" data-name="Trazado 36" d="M541.085,332.6a4.286,4.286,0,1,1-4.355-4.255.781.781,0,0,1,.876.771.794.794,0,0,1-.843.839,2.658,2.658,0,1,0,2.708,2.608,2.845,2.845,0,0,0-.266-1.1.815.815,0,0,1,.592-1.2.8.8,0,0,1,.84.443A3.883,3.883,0,0,1,541.085,332.6Z" transform="translate(-172.001 -108.408)" fill="#fff" stroke="#fff" stroke-width="1"/>
  </g>
</svg>
