<svg id="Avance" xmlns="http://www.w3.org/2000/svg" xmlns:xlink="http://www.w3.org/1999/xlink" width="39.5" height="45.328" viewBox="0 0 39.5 45.328">
  <defs>
    <linearGradient id="linear-gradient" y1="0.5" x2="1" y2="0.5" gradientUnits="objectBoundingBox">
      <stop offset="0" stop-color="#d232ed"/>
      <stop offset="0.539" stop-color="#803bec"/>
      <stop offset="1" stop-color="#579eee"/>
    </linearGradient>
  </defs>
  <path id="Trazado_100" data-name="Trazado 100" d="M386.361,32.942h15.1a2.2,2.2,0,0,1,2.458,2.443q0,3.467,0,6.934a2.195,2.195,0,0,1-2.355,2.366c-1.49,0-2.981.009-4.471-.005-.346,0-.481.087-.481.46q.016,7.778,0,15.555c0,.379.1.422.448.327a8.8,8.8,0,1,1-6.315,9.386,8.1,8.1,0,0,1,.019-2c.035-.268-.029-.363-.3-.361-.76.007-1.52.006-2.281,0-.23,0-.331.1-.328.327q.009.73,0,1.46a.354.354,0,0,0,.242.384.806.806,0,0,1,.492.843c-.007,2.113,0,4.227-.006,6.34,0,.595-.272.863-.87.864q-8.279,0-16.558,0c-.622,0-.88-.266-.881-.9q-.006-3.125,0-6.249c0-.691.244-.957.929-.934.426.014.539-.129.538-.545-.014-4.06,0-8.12-.015-12.179a2.2,2.2,0,0,1,.339-1.2c1.285-2.119,2.553-4.248,3.832-6.37a1.337,1.337,0,0,0,.22-.726c-.009-1.338-.014-2.676,0-4.014,0-.363-.119-.471-.474-.467-1.5.015-3.01.009-4.516,0a2.172,2.172,0,0,1-2.315-2.311q-.006-3.58,0-7.162a2.163,2.163,0,0,1,2.264-2.269Q378.721,32.938,386.361,32.942Zm5.813,17.228c0-3.344-.007-6.688.009-10.032,0-.429-.107-.574-.556-.572q-5.244.026-10.488,0c-.459,0-.592.12-.59.586q.026,7.113,0,14.227c0,.372.042.522.487.484a2.8,2.8,0,0,1,2.927,1.652,2.89,2.89,0,0,1-.675,3.307c-.383.391-.766.782-1.164,1.157-.223.21-.207.361.029.547a3.255,3.255,0,0,1,1.136,1.67.5.5,0,0,0,.586.412c1.657-.014,3.314-.017,4.97,0a.54.54,0,0,0,.6-.451,3.469,3.469,0,0,1,2.264-2.27.59.59,0,0,0,.465-.687C392.169,56.859,392.174,53.515,392.174,50.171Zm7.267,26.566a7.216,7.216,0,0,0,7.307-7.255,7.242,7.242,0,0,0-14.483-.038A7.213,7.213,0,0,0,399.441,76.736ZM376.115,52.751l-.1-.025c-.852,1.419-1.7,2.839-2.559,4.254a1.411,1.411,0,0,0-.2.777c.008,1.383,0,2.767,0,4.151,0,2.585.007,5.169-.008,7.754,0,.4.113.52.516.519q6.043-.02,12.087,0c.386,0,.514-.129.485-.5-.025-.318,0-.638,0-.958,0-.674,0-.675-.664-.675q-4.31,0-8.621,0c-.684,0-.929-.252-.934-.938,0-.532.029-1.066-.01-1.6a1.526,1.526,0,0,1,.531-1.283c1.857-1.82,3.693-3.66,5.53-5.5a1.313,1.313,0,1,0-1.832-1.864c-.469.455-.932.917-1.4,1.378-.734.728-1.457,1.467-2.2,2.182a.762.762,0,0,1-1.14.039.772.772,0,0,1,.056-1.136,1.327,1.327,0,0,0,.47-1.2c-.035-.453-.007-.912-.007-1.368Zm10.251-18.284q-7.5,0-15.006,0c-.764,0-1.019.253-1.02,1.01q0,3.329,0,6.659c0,.78.253,1.023,1.051,1.025,1.262,0,2.524.008,3.786,0,1.062-.008.912.17.944-.946.012-.385-.152-.457-.488-.452-1,.015-2.007.01-3.01,0-.625,0-.884-.264-.886-.893q-.008-2.052,0-4.1c0-.65.26-.9.923-.9q13.707,0,27.413,0c.663,0,.922.253.924.9q.008,2.053,0,4.105c0,.628-.262.889-.886.894-.867.007-1.733,0-2.6,0-1.007.009-.869-.141-.9.9-.01.371.1.506.487.5,1.414-.02,2.828-.006,4.242-.009.813,0,1.051-.245,1.052-1.071q0-3.238,0-6.477c0-.937-.212-1.147-1.159-1.147Zm-6.98,42.275c2.4,0,4.806-.005,7.209.006.351,0,.482-.1.477-.465q-.028-2.053,0-4.106c.005-.386-.13-.489-.5-.488q-7.14.015-14.28,0c-.37,0-.506.1-.5.488.02,1.354.022,2.707,0,4.06-.007.409.131.515.524.512C374.672,76.734,377.029,76.742,379.386,76.742Zm15.708-26q0-5.314,0-10.628c0-.161.077-.4-.085-.466a1.9,1.9,0,0,0-1.161-.031c-.261.06-.142.368-.142.563q-.009,10.514-.006,21.027c0,.718-.166.9-.875,1.011a2.167,2.167,0,0,0-2.033,2.047c-.1.685-.293.859-.979.859q-3.444,0-6.887,0c-.687,0-.885-.173-.978-.859a2.233,2.233,0,0,0-.928-1.656c-.16-.11-.32-.192-.49-.025-.921.906-1.854,1.8-2.755,2.727-.279.287-.174.713-.094,1.048.071.3.42.155.642.155,4.12.009,8.241,0,12.361.013a.648.648,0,0,0,.714-.459,8.408,8.408,0,0,1,3.307-3.962.8.8,0,0,0,.4-.783Q395.086,56.034,395.094,50.743Zm-8.73-13.357H374.232c-.2,0-.4.01-.593,0-.267-.015-.388.084-.384.367.012.714.009,1.429,0,2.143,0,.255.1.352.354.349q1.072-.011,2.144,0c.242,0,.363-.074.363-.339s-.137-.338-.372-.329-.456,0-.684,0c-.8,0-1.145-.24-1.132-.783.012-.523.343-.741,1.128-.741h22.622c.122,0,.244,0,.365,0a.758.758,0,1,1-.012,1.516c-.35.014-.7.011-1.049,0-.238-.006-.367.065-.367.335s.129.336.368.334c.7-.006,1.4-.012,2.1,0,.3.006.4-.108.4-.4-.014-.592,0-1.186,0-1.778,0-.679,0-.679-.659-.679Zm-8.726,19.8.125.06c.282-.3.542-.616.851-.88a1.227,1.227,0,0,0,.428-1.037q-.021-7.544-.009-15.09c0-.122,0-.244,0-.365,0-.213-.1-.3-.309-.3-.152,0-.3,0-.456,0-.629,0-.63,0-.63.617V57.187Z" transform="translate(-368.813 -32.942)" fill="url(#linear-gradient)"/>
  <path id="Trazado_101" data-name="Trazado 101" d="M397.211,66.514a5.142,5.142,0,1,1,5.176-5.122A5.1,5.1,0,0,1,397.211,66.514Zm3.645-5.133a3.612,3.612,0,1,0-3.618,3.6A3.677,3.677,0,0,0,400.856,61.38Z" transform="translate(-379.693 -43.82)" fill="url(#linear-gradient)"/>
  <path id="Trazado_102" data-name="Trazado 102" d="M422.426,99.384V94.7c0-.653,0-1.307,0-1.96.005-.566.28-.88.757-.881s.762.314.763.876q.007,3.213,0,6.426c0,.075.007.15.016.339l1.131-1.125c.162-.16.316-.33.49-.476a.759.759,0,0,1,1.067.041.744.744,0,0,1,.011,1.033c-.378.415-.786.8-1.183,1.2-.557.56-1.112,1.122-1.675,1.677a.781.781,0,0,1-1.235,0q-1.375-1.365-2.736-2.742a.78.78,0,1,1,1.081-1.1c.472.471.929.956,1.393,1.435Z" transform="translate(-392.494 -60.46)" fill="url(#linear-gradient)"/>
</svg>
