<svg xmlns="http://www.w3.org/2000/svg" width="20.689" height="21.845" viewBox="0 0 20.689 21.845">
  <g id="Grupo_81" data-name="Grupo 81" transform="translate(-609.771 -28)">
    <path id="Trazado_134" data-name="Trazado 134" d="M620.324,28a.784.784,0,0,1,.47.809c-.007.376,0,.753,0,1.13,0,.22.019.231.212.119q1-.573,1.994-1.15a.65.65,0,0,1,.742.031.626.626,0,0,1,.26.636.69.69,0,0,1-.4.521c-.844.485-1.682.979-2.531,1.454a.47.47,0,0,0-.286.483c.019.568.009,1.137,0,1.705,0,.163.03.205.186.113.6-.353,1.2-.7,1.807-1.046.092-.053.184-.109.281-.153a.648.648,0,0,1,.939.583c.009.76,0,1.521,0,2.281,0,.244.006.247.211.13.5-.287.995-.579,1.5-.86a.322.322,0,0,0,.186-.322q-.009-1.546,0-3.091a.656.656,0,0,1,.749-.7.683.683,0,0,1,.588.742c0,.732,0,1.464,0,2.2,0,.075-.036.177.035.22s.156-.04.226-.08c.432-.246.857-.5,1.3-.74a.658.658,0,0,1,.989.483.673.673,0,0,1-.35.676c-.453.268-.91.528-1.364.792-.047.028-.108.039-.141.117l1.6.926c.191.11.384.216.572.331a.672.672,0,0,1,.274.918.658.658,0,0,1-.922.239q-1.326-.75-2.639-1.525a.415.415,0,0,0-.486-.006c-.5.3-1.017.6-1.531.886-.149.084-.128.129,0,.205.667.38,1.33.766,1.995,1.148a.686.686,0,0,1,.006,1.292l-.055.033-1.772,1.022c-.067.038-.131.081-.223.139.2.118.382.226.563.331.338.2.682.382,1.013.589a.389.389,0,0,0,.464.006c.88-.521,1.768-1.029,2.656-1.537a.657.657,0,0,1,.85.132.669.669,0,0,1,.016.846.984.984,0,0,1-.3.232l-1.9,1.1c-.215.124-.214.125.009.254.431.249.862.5,1.291.748a.666.666,0,0,1,.281.945.673.673,0,0,1-.952.2c-.438-.25-.876-.5-1.31-.758-.154-.092-.2-.076-.2.112.007.76.006,1.52,0,2.281a.7.7,0,0,1-.581.731.667.667,0,0,1-.755-.7c0-1.009-.007-2.018,0-3.027a.408.408,0,0,0-.235-.422c-.493-.268-.976-.554-1.459-.84-.159-.094-.2-.063-.2.119.006.781,0,1.563,0,2.345a.661.661,0,0,1-1.051.615c-.655-.371-1.3-.752-1.958-1.127-.2-.114-.2-.111-.2.116,0,.547.006,1.094,0,1.641a.353.353,0,0,0,.211.352q1.334.758,2.658,1.533a.664.664,0,0,1,.337.742.672.672,0,0,1-.568.508.819.819,0,0,1-.54-.158c-.622-.358-1.242-.719-1.864-1.077-.219-.126-.23-.119-.231.129,0,.476.006.952,0,1.428s-.263.758-.654.766a.641.641,0,0,1-.676-.643c-.007-.519,0-1.037,0-1.556,0-.265,0-.266-.24-.129q-.97.558-1.939,1.117a.715.715,0,0,1-.465.121.68.68,0,0,1-.581-.52.663.663,0,0,1,.334-.722c.582-.342,1.168-.677,1.752-1.015.313-.181.625-.368.943-.541a.328.328,0,0,0,.2-.335c-.011-.547,0-1.094,0-1.641,0-.245,0-.246-.209-.126L617.438,44.9c-.08.046-.16.093-.243.133a.655.655,0,0,1-.975-.6c-.008-.782,0-1.563,0-2.345,0-.282,0-.283-.239-.146-.492.283-.982.572-1.479.848a.3.3,0,0,0-.176.3q.008,1.567,0,3.134a.647.647,0,0,1-.691.672.661.661,0,0,1-.616-.552,3.343,3.343,0,0,1-.025-.617c0-.568,0-1.137,0-1.705,0-.1.047-.225-.04-.282s-.179.052-.261.1c-.317.176-.627.364-.943.54a.674.674,0,0,1-.995-.213.683.683,0,0,1,.343-.946q.536-.308,1.07-.618c.046-.027.109-.038.132-.123l-1.429-.827c-.24-.139-.481-.276-.719-.417a.666.666,0,1,1,.672-1.146c.887.509,1.774,1.019,2.656,1.537a.336.336,0,0,0,.39,0q.715-.424,1.44-.831c.155-.086.171-.129,0-.223-.638-.359-1.27-.727-1.9-1.1a.673.673,0,0,1,0-1.255c.662-.389,1.328-.769,1.992-1.153.2-.116.2-.125.011-.235-.523-.3-1.049-.6-1.569-.906a.306.306,0,0,0-.352,0c-.859.5-1.721,1-2.583,1.493a.851.851,0,0,1-.539.166.676.676,0,0,1-.575-.5.651.651,0,0,1,.309-.733c.494-.295.995-.578,1.493-.866l.71-.411a.5.5,0,0,0-.225-.168c-.343-.2-.691-.394-1.032-.6a.664.664,0,0,1-.288-.928.674.674,0,0,1,.965-.214c.346.2.69.4,1.035.594.217.125.233.117.233-.128,0-.682,0-1.364,0-2.046a2.511,2.511,0,0,1,.024-.361.648.648,0,0,1,.712-.558.636.636,0,0,1,.595.636q.008,1.556,0,3.112a.365.365,0,0,0,.208.373c.479.264.948.545,1.423.818.263.151.264.15.264-.165,0-.7,0-1.393,0-2.089a.674.674,0,0,1,1.083-.635q.981.56,1.956,1.131c.144.084.206.091.2-.11q-.013-.906,0-1.812a.321.321,0,0,0-.191-.318c-.858-.489-1.712-.985-2.567-1.478-.055-.032-.111-.064-.164-.1a.662.662,0,0,1,.679-1.137c.564.316,1.121.645,1.681.968.129.074.26.146.387.224s.175.05.173-.1c0-.4.014-.8-.006-1.194a.764.764,0,0,1,.446-.8Zm-.867,13.112c0-.319,0-.638,0-.957,0-.152-.017-.216-.183-.118-.518.307-1.042.605-1.566.9a.278.278,0,0,0-.154.275q.006.936,0,1.872c0,.144.019.2.173.111.525-.31,1.054-.612,1.584-.914a.259.259,0,0,0,.147-.257C619.452,41.722,619.456,41.417,619.457,41.112Zm3.237,1.052c0-.319,0-.639,0-.959a.247.247,0,0,0-.134-.243q-.805-.458-1.606-.925c-.118-.069-.164-.052-.164.09q0,.97,0,1.939a.233.233,0,0,0,.137.22q.8.461,1.6.927c.148.087.164.017.162-.111C622.691,42.789,622.694,42.476,622.694,42.164Zm-7.716-3.315,1.729,1a.221.221,0,0,0,.241,0q.846-.491,1.694-.979c.106-.061.118-.1,0-.168-.53-.3-1.057-.607-1.584-.914a.2.2,0,0,0-.218-.008C616.233,38.128,615.625,38.477,614.978,38.849Zm10.256.009a.965.965,0,0,0-.087-.069c-.577-.334-1.155-.665-1.731-1a.241.241,0,0,0-.274.019c-.5.293-1.005.585-1.513.869-.166.093-.126.144.008.22q.823.469,1.639.948a.234.234,0,0,0,.273-.008c.231-.139.466-.27.7-.405Zm-5.778-2.308c0-.284-.006-.568,0-.852a.289.289,0,0,0-.164-.291q-.788-.446-1.568-.9c-.122-.071-.174-.07-.173.091,0,.6,0,1.193,0,1.79a.231.231,0,0,0,.124.227q.813.465,1.623.937c.13.076.157.026.155-.1C619.453,37.147,619.457,36.849,619.457,36.55Zm1.336-.022c0,.3,0,.6,0,.895,0,.127.013.2.162.109q.8-.469,1.606-.925a.247.247,0,0,0,.136-.242c0-.59,0-1.179,0-1.768,0-.169-.047-.178-.18-.1q-.78.459-1.568.906a.276.276,0,0,0-.158.274C620.8,35.96,620.793,36.245,620.792,36.529Z" fill="#6ecef8"/>
  </g>
</svg>
