<svg id="copo_nieve" data-name="copo nieve" xmlns="http://www.w3.org/2000/svg" xmlns:xlink="http://www.w3.org/1999/xlink" width="39.511" height="41.719" viewBox="0 0 39.511 41.719">
  <defs>
    <linearGradient id="linear-gradient" y1="0.5" x2="1" y2="0.5" gradientUnits="objectBoundingBox">
      <stop offset="0" stop-color="#d232ed"/>
      <stop offset="0.539" stop-color="#803bec"/>
      <stop offset="1" stop-color="#579eee"/>
    </linearGradient>
  </defs>
  <path id="Trazado_86" data-name="Trazado 86" d="M629.924,28a1.5,1.5,0,0,1,.9,1.546c-.013.719-.005,1.438,0,2.158,0,.421.036.441.405.228q1.905-1.1,3.807-2.2a1.241,1.241,0,0,1,1.417.059,1.2,1.2,0,0,1,.5,1.214,1.318,1.318,0,0,1-.757,1c-1.611.926-3.213,1.869-4.835,2.778a.9.9,0,0,0-.547.923c.036,1.085.018,2.171.008,3.256,0,.311.057.392.356.216,1.145-.675,2.3-1.334,3.452-2,.176-.1.351-.208.536-.293A1.238,1.238,0,0,1,636.952,38c.018,1.452.005,2.9.008,4.356,0,.466.012.472.4.248.952-.549,1.9-1.106,2.858-1.643a.615.615,0,0,0,.355-.615q-.016-2.952,0-5.9A1.252,1.252,0,0,1,642,33.106a1.3,1.3,0,0,1,1.122,1.417c.008,1.4,0,2.8.005,4.193,0,.144-.068.338.067.42.16.1.3-.076.431-.153.826-.469,1.637-.964,2.474-1.414a1.257,1.257,0,0,1,1.89.922,1.285,1.285,0,0,1-.669,1.291c-.864.511-1.737,1.008-2.6,1.513-.091.053-.206.075-.269.223l3.054,1.768c.364.21.733.413,1.092.632a1.282,1.282,0,0,1,.523,1.753,1.257,1.257,0,0,1-1.762.457q-2.533-1.432-5.039-2.912a.792.792,0,0,0-.929-.011c-.964.582-1.943,1.139-2.924,1.692-.285.161-.245.247.009.392,1.273.725,2.539,1.463,3.81,2.192a1.31,1.31,0,0,1,.012,2.467l-.1.063q-1.692.976-3.385,1.952c-.127.073-.25.155-.426.265.385.226.729.431,1.076.632.646.374,1.3.73,1.935,1.124a.743.743,0,0,0,.887.011c1.681-1,3.376-1.966,5.073-2.935a1.254,1.254,0,0,1,1.624.252,1.278,1.278,0,0,1,.031,1.615,1.879,1.879,0,0,1-.577.443q-1.815,1.05-3.63,2.1c-.411.238-.41.238.017.485.823.476,1.647.947,2.465,1.429a1.272,1.272,0,0,1,.538,1.8,1.285,1.285,0,0,1-1.818.387c-.836-.477-1.674-.954-2.5-1.448-.294-.176-.381-.146-.377.215.014,1.452.011,2.9,0,4.356a1.327,1.327,0,0,1-1.11,1.4,1.273,1.273,0,0,1-1.442-1.332c-.008-1.927-.013-3.854.006-5.781a.78.78,0,0,0-.449-.806c-.941-.512-1.864-1.058-2.787-1.6-.3-.179-.39-.12-.387.228.011,1.492.008,2.985,0,4.478a1.263,1.263,0,0,1-2.007,1.175c-1.251-.708-2.492-1.436-3.74-2.151-.381-.219-.389-.212-.39.221,0,1.045.011,2.09-.008,3.135a.675.675,0,0,0,.4.672q2.547,1.449,5.077,2.928a1.267,1.267,0,0,1,.644,1.417,1.283,1.283,0,0,1-1.084.971,1.564,1.564,0,0,1-1.032-.3c-1.187-.685-2.371-1.373-3.559-2.057-.418-.24-.439-.228-.44.247,0,.909.012,1.819-.007,2.727s-.5,1.447-1.249,1.463a1.224,1.224,0,0,1-1.291-1.228c-.013-.99,0-1.981,0-2.972,0-.506,0-.508-.458-.247q-1.852,1.065-3.7,2.134a1.366,1.366,0,0,1-.888.231,1.3,1.3,0,0,1-1.109-.994,1.265,1.265,0,0,1,.639-1.379c1.111-.653,2.23-1.293,3.346-1.938.6-.346,1.193-.7,1.8-1.033a.626.626,0,0,0,.38-.639c-.021-1.044-.007-2.09-.008-3.135,0-.468,0-.469-.4-.241l-3.455,1.993c-.153.088-.305.177-.464.254a1.251,1.251,0,0,1-1.861-1.142c-.016-1.493,0-2.986-.005-4.478,0-.54,0-.54-.457-.278-.941.541-1.876,1.093-2.824,1.62a.574.574,0,0,0-.336.579q.015,2.992,0,5.984a1.236,1.236,0,0,1-1.32,1.284,1.262,1.262,0,0,1-1.177-1.055,6.394,6.394,0,0,1-.047-1.178c0-1.085,0-2.171,0-3.256,0-.184.089-.43-.077-.538s-.342.1-.5.187c-.6.337-1.2.695-1.8,1.031a1.287,1.287,0,0,1-1.9-.407,1.3,1.3,0,0,1,.656-1.807q1.024-.587,2.044-1.181c.089-.052.209-.072.252-.234l-2.73-1.579c-.458-.265-.918-.526-1.372-.8a1.272,1.272,0,1,1,1.282-2.188c1.694.973,3.389,1.945,5.073,2.935a.642.642,0,0,0,.745-.005q1.365-.811,2.75-1.586c.3-.165.327-.246.006-.427-1.218-.686-2.425-1.389-3.632-2.094a1.285,1.285,0,0,1,0-2.4c1.263-.742,2.536-1.468,3.8-2.2.383-.222.385-.238.021-.449-1-.577-2-1.143-3-1.73a.584.584,0,0,0-.673.008c-1.64.958-3.287,1.9-4.933,2.852a1.624,1.624,0,0,1-1.03.317,1.291,1.291,0,0,1-1.1-.955,1.243,1.243,0,0,1,.59-1.4c.943-.563,1.9-1.1,2.852-1.655l1.356-.785a.963.963,0,0,0-.429-.321c-.655-.384-1.32-.752-1.972-1.143a1.268,1.268,0,0,1-.55-1.772,1.287,1.287,0,0,1,1.843-.409c.662.373,1.318.757,1.976,1.134.415.238.445.224.446-.245,0-1.3,0-2.605,0-3.908a4.79,4.79,0,0,1,.046-.689A1.237,1.237,0,0,1,617.33,33.1a1.216,1.216,0,0,1,1.136,1.215q.015,2.972,0,5.944a.7.7,0,0,0,.4.712c.914.5,1.811,1.042,2.717,1.562.5.289.5.286.5-.315,0-1.33,0-2.66,0-3.989a1.287,1.287,0,0,1,2.069-1.212q1.873,1.07,3.735,2.159c.275.161.393.174.387-.21q-.026-1.73,0-3.46a.613.613,0,0,0-.365-.607c-1.638-.934-3.27-1.88-4.9-2.823-.106-.061-.212-.122-.313-.19a1.265,1.265,0,0,1,1.3-2.172c1.077.6,2.14,1.231,3.209,1.848.247.142.5.279.74.429s.334.1.331-.192c-.009-.76.028-1.521-.012-2.279A1.459,1.459,0,0,1,629.11,28Zm-1.656,25.04c0-.609-.008-1.219,0-1.828.005-.29-.033-.412-.35-.225-.99.586-1.99,1.156-2.991,1.723a.532.532,0,0,0-.294.525q.012,1.788,0,3.575c0,.274.036.385.33.211,1-.592,2.013-1.17,3.025-1.745a.494.494,0,0,0,.28-.49C628.26,54.205,628.268,53.623,628.268,53.04Zm6.182,2.009c0-.61,0-1.221,0-1.831a.471.471,0,0,0-.255-.465q-1.538-.875-3.068-1.766c-.225-.131-.313-.1-.312.171q.007,1.852,0,3.7a.445.445,0,0,0,.261.42q1.535.88,3.064,1.771c.284.166.312.032.31-.212C634.446,56.243,634.451,55.646,634.451,55.049Zm-14.735-6.33c1.148.662,2.225,1.282,3.3,1.9a.422.422,0,0,0,.459,0q1.616-.938,3.235-1.87c.2-.116.225-.193,0-.321-1.013-.575-2.019-1.16-3.026-1.745a.376.376,0,0,0-.417-.015C622.112,47.342,620.951,48.009,619.716,48.719Zm19.587.017a1.846,1.846,0,0,0-.165-.132c-1.1-.638-2.206-1.271-3.3-1.915a.461.461,0,0,0-.524.036c-.96.559-1.92,1.117-2.889,1.659-.317.177-.241.274.016.421q1.572.9,3.13,1.811a.447.447,0,0,0,.522-.015c.441-.265.89-.516,1.335-.774Zm-11.035-4.407c0-.542-.011-1.085,0-1.628a.551.551,0,0,0-.312-.557q-1.5-.852-2.994-1.728c-.233-.137-.332-.133-.329.174.008,1.139.006,2.278,0,3.418a.442.442,0,0,0,.237.433q1.553.889,3.1,1.79c.248.145.3.049.3-.193C628.263,45.468,628.268,44.9,628.268,44.329Zm2.551-.042c0,.57,0,1.14,0,1.709,0,.243.024.376.31.208q1.527-.9,3.067-1.767a.471.471,0,0,0,.26-.462c-.006-1.126-.009-2.252,0-3.377,0-.323-.09-.341-.344-.191q-1.49.876-2.994,1.729a.527.527,0,0,0-.3.523C630.828,43.2,630.82,43.745,630.819,44.287Z" transform="translate(-609.771 -28)" fill="url(#linear-gradient)"/>
</svg>
