<svg xmlns="http://www.w3.org/2000/svg" width="37.899" height="44.043" viewBox="0 0 37.899 44.043">
  <g id="Grupo_66" data-name="Grupo 66" transform="translate(-617.395 -141.696)">
    <path id="Trazado_87" data-name="Trazado 87" d="M632.93,185.738q-5.353,0-10.706,0a4.765,4.765,0,0,1-3.2-1.058,4.242,4.242,0,0,1-1.607-3.316q-.033-8.937,0-17.873a4.372,4.372,0,0,1,3.654-4.231c.46-.078.592-.25.585-.711-.026-1.872-.021-3.745-.007-5.618a11.734,11.734,0,0,1,9.738-11.118,11.346,11.346,0,0,1,12.857,9.695,19.93,19.93,0,0,1,.087,3.488,1.927,1.927,0,0,1-1.891,1.817c-.633.024-1.269.026-1.9,0a1.945,1.945,0,0,1-1.9-1.989,13.98,13.98,0,0,0-.179-3.169,5.631,5.631,0,0,0-5.473-4.272,5.7,5.7,0,0,0-5.528,4.663,5.63,5.63,0,0,0-.107,1.142c0,1.814.012,3.628-.01,5.442,0,.437.149.542.562.541q8.074-.017,16.148,0a4.411,4.411,0,0,1,4.407,3.613,3.6,3.6,0,0,1,.058.7q.005,8.936,0,17.873a4.377,4.377,0,0,1-3.6,4.278,7.481,7.481,0,0,1-1.319.1Q638.261,185.746,632.93,185.738ZM633,160.614q-5.505,0-11.011,0a2.961,2.961,0,0,0-3.134,3.132q-.006,8.69,0,17.38a3.575,3.575,0,0,0,.056.747,3.026,3.026,0,0,0,3.116,2.415q10.858,0,21.715,0a3.081,3.081,0,0,0,3.379-3.377c0-5.661-.025-11.322.015-16.982a3.2,3.2,0,0,0-3.345-3.338C640.2,160.669,636.6,160.614,633,160.614Zm-7.109-5.065c.051-.961-.072-2.125.074-3.287a7.063,7.063,0,0,1,14.056.105c.057.8.043,1.591.056,2.386.006.36.129.609.53.613.59,0,1.18.008,1.769,0a.463.463,0,0,0,.5-.5,20.743,20.743,0,0,0-.112-3.486,9.9,9.9,0,0,0-19.62.827,61.819,61.819,0,0,0-.071,6.585c0,.295.143.38.413.375.648-.009,1.3-.017,1.946,0,.344.011.468-.1.462-.455C625.881,157.726,625.893,156.739,625.893,155.549Z" transform="translate(0 0)" fill="#030303"/>
    <path id="Trazado_88" data-name="Trazado 88" d="M665.261,162.713a.683.683,0,0,1-.67-.5.616.616,0,0,1,.269-.774c.872-.459,1.751-.908,2.649-1.312a.689.689,0,0,1,.641,1.2c-.879.477-1.785.9-2.683,1.346A.674.674,0,0,1,665.261,162.713Z" transform="translate(-14.427 -5.62)" fill="#030303"/>
    <path id="Trazado_89" data-name="Trazado 89" d="M663.531,154.126a3.3,3.3,0,0,1-.115.355c-.313.713-.624,1.428-.952,2.134a.714.714,0,1,1-1.3-.562q.478-1.114.982-2.217a.68.68,0,0,1,.818-.438A.721.721,0,0,1,663.531,154.126Z" transform="translate(-13.364 -3.573)" fill="#030303"/>
    <path id="Trazado_90" data-name="Trazado 90" d="M670.329,169.009a.7.7,0,0,1-.816.738c-.834-.165-1.662-.366-2.482-.593a.663.663,0,0,1-.465-.832.71.71,0,0,1,.854-.514c.774.171,1.543.363,2.313.551A.734.734,0,0,1,670.329,169.009Z" transform="translate(-15.035 -7.983)" fill="#030303"/>
    <path id="Trazado_91" data-name="Trazado 91" d="M638.375,189.232c-.722,0-1.444.01-2.165,0-.795-.014-1.043-.326-.936-1.119.209-1.56.409-3.12.62-4.679a.722.722,0,0,0-.16-.53,3.28,3.28,0,1,1,5.954-1.972,2.992,2.992,0,0,1-.56,1.873,1.087,1.087,0,0,0-.2.829c.2,1.472.385,2.946.586,4.417.116.854-.151,1.177-1.019,1.183C639.789,189.237,639.082,189.233,638.375,189.232Zm0-1.445H639.4c.618,0,.646-.044.563-.656-.175-1.281-.33-2.566-.51-3.847a1.231,1.231,0,0,1,.337-1.082,1.805,1.805,0,0,0-.144-2.575,1.87,1.87,0,0,0-2.531.028,1.838,1.838,0,0,0-.084,2.553,1.256,1.256,0,0,1,.314,1.131c-.2,1.368-.36,2.74-.549,4.11-.037.268.065.344.307.341C637.526,187.783,637.953,187.787,638.379,187.787Z" transform="translate(-5.421 -11.021)" fill="#030303"/>
    <path id="Trazado_92" data-name="Trazado 92" d="M656.895,183.957c0,1.606,0,3.211,0,4.818,0,.5-.262.806-.671.819a.7.7,0,0,1-.715-.773c-.01-.87,0-1.739,0-2.608q0-3.447,0-6.894a3.911,3.911,0,0,1,.01-.441.684.684,0,0,1,.682-.627.675.675,0,0,1,.68.582,2.79,2.79,0,0,1,.019.529Q656.9,181.659,656.895,183.957Z" transform="translate(-11.658 -11.183)" fill="#030303"/>
    <path id="Trazado_93" data-name="Trazado 93" d="M624.209,178.664a.7.7,0,0,1-.621-1.008,1.538,1.538,0,0,1,.3-.379q1.838-1.845,3.682-3.683a1.468,1.468,0,0,1,.342-.273.695.695,0,0,1,.917.986,1.924,1.924,0,0,1-.26.3q-1.84,1.843-3.682,3.683A1,1,0,0,1,624.209,178.664Z" transform="translate(-1.872 -9.645)" fill="#030303"/>
    <path id="Trazado_94" data-name="Trazado 94" d="M628.643,180.961a.657.657,0,0,1-.6-.384.632.632,0,0,1,.074-.745c.631-.661,1.267-1.317,1.928-1.948a.709.709,0,0,1,1.03.035.694.694,0,0,1-.062,1c-.593.615-1.206,1.213-1.812,1.816A.763.763,0,0,1,628.643,180.961Z" transform="translate(-3.231 -11.008)" fill="#030303"/>
    <path id="Trazado_95" data-name="Trazado 95" d="M656.89,174.779c0,.748-.227,1.1-.707,1.088s-.68-.348-.68-1.075c0-.162-.006-.323.008-.484a.7.7,0,0,1,.682-.67.707.707,0,0,1,.7.658C656.9,174.456,656.89,174.618,656.89,174.779Z" transform="translate(-11.658 -9.772)" fill="#030303"/>
  </g>
</svg>
