<svg id="candado" xmlns="http://www.w3.org/2000/svg" xmlns:xlink="http://www.w3.org/1999/xlink" width="37.002" height="43" viewBox="0 0 37.002 43">
  <defs>
    <linearGradient id="linear-gradient" y1="0.5" x2="1" y2="0.5" gradientUnits="objectBoundingBox">
      <stop offset="0" stop-color="#d032eb"/>
      <stop offset="0.539" stop-color="#803bea"/>
      <stop offset="1" stop-color="#579cec"/>
    </linearGradient>
    <linearGradient id="linear-gradient-2" x1="0" y1="0.5" x2="1" y2="0.5" xlink:href="#linear-gradient"/>
    <linearGradient id="linear-gradient-4" x1="0" y1="0.5" x2="1" y2="0.5" xlink:href="#linear-gradient"/>
    <linearGradient id="linear-gradient-6" x1="0" y1="0.5" x2="1" y2="0.5" xlink:href="#linear-gradient"/>
    <linearGradient id="linear-gradient-9" x1="0" y1="0.5" x2="1" y2="0.5" xlink:href="#linear-gradient"/>
  </defs>
  <path id="Trazado_149" data-name="Trazado 149" d="M632.562,184.7q-5.227,0-10.453,0a4.652,4.652,0,0,1-3.129-1.033,4.141,4.141,0,0,1-1.569-3.238q-.033-8.725,0-17.45a4.268,4.268,0,0,1,3.567-4.131c.449-.076.578-.244.571-.694-.026-1.828-.02-3.657-.007-5.485a11.456,11.456,0,0,1,9.508-10.855,11.078,11.078,0,0,1,12.553,9.465,19.457,19.457,0,0,1,.085,3.406,1.882,1.882,0,0,1-1.846,1.774c-.618.024-1.239.025-1.857,0a1.9,1.9,0,0,1-1.857-1.941,13.651,13.651,0,0,0-.175-3.094,5.5,5.5,0,0,0-5.344-4.171,5.561,5.561,0,0,0-5.4,4.552,5.5,5.5,0,0,0-.1,1.115c0,1.771.012,3.542-.009,5.313,0,.427.145.529.549.528q7.883-.016,15.765,0a4.307,4.307,0,0,1,4.3,3.528,3.52,3.52,0,0,1,.057.686q.005,8.724,0,17.45a4.274,4.274,0,0,1-3.511,4.176,7.308,7.308,0,0,1-1.288.1Q637.766,184.7,632.562,184.7Zm.071-24.53q-5.375,0-10.751,0a2.891,2.891,0,0,0-3.06,3.058q-.006,8.484,0,16.969a3.49,3.49,0,0,0,.055.729,2.954,2.954,0,0,0,3.043,2.357q10.6,0,21.2,0a3.008,3.008,0,0,0,3.3-3.3c0-5.527-.024-11.054.014-16.58a3.124,3.124,0,0,0-3.266-3.259C639.658,160.22,636.145,160.166,632.633,160.166Zm-6.941-4.945c.049-.938-.07-2.074.073-3.209a6.9,6.9,0,0,1,13.723.1c.056.778.042,1.553.055,2.329.006.352.126.594.517.6.576,0,1.152.007,1.727,0a.451.451,0,0,0,.491-.487,20.253,20.253,0,0,0-.109-3.4,9.67,9.67,0,0,0-19.155.808,60.344,60.344,0,0,0-.069,6.429c0,.288.14.371.4.367.633-.009,1.267-.017,1.9,0,.336.011.457-.1.451-.445C625.68,157.347,625.692,156.383,625.692,155.221Z" transform="translate(-617.395 -141.696)" fill="url(#linear-gradient)"/>
  <path id="Trazado_150" data-name="Trazado 150" d="M665.244,162.65a.667.667,0,0,1-.654-.486.6.6,0,0,1,.262-.756c.852-.448,1.71-.886,2.587-1.281a.673.673,0,0,1,.626,1.176c-.859.466-1.743.882-2.619,1.314A.658.658,0,0,1,665.244,162.65Z" transform="translate(-632.597 -147.618)" fill="url(#linear-gradient-2)"/>
  <path id="Trazado_151" data-name="Trazado 151" d="M663.473,154.108a3.24,3.24,0,0,1-.112.347c-.306.7-.609,1.394-.93,2.083a.7.7,0,1,1-1.266-.549q.467-1.088.959-2.164a.664.664,0,0,1,.8-.428A.7.7,0,0,1,663.473,154.108Z" transform="translate(-631.477 -145.462)" fill="url(#linear-gradient-2)"/>
  <path id="Trazado_152" data-name="Trazado 152" d="M670.239,168.98a.682.682,0,0,1-.8.72c-.815-.161-1.623-.358-2.423-.579a.648.648,0,0,1-.454-.812.693.693,0,0,1,.833-.5c.756.167,1.506.354,2.258.538A.717.717,0,0,1,670.239,168.98Z" transform="translate(-633.237 -150.107)" fill="url(#linear-gradient-4)"/>
  <path id="Trazado_153" data-name="Trazado 153" d="M638.3,188.96c-.7,0-1.409.009-2.114,0-.776-.014-1.018-.319-.914-1.092.2-1.523.4-3.046.605-4.569a.7.7,0,0,0-.157-.517,3.2,3.2,0,1,1,5.813-1.925,2.921,2.921,0,0,1-.547,1.829,1.061,1.061,0,0,0-.193.809c.193,1.437.376,2.876.572,4.312.113.834-.148,1.149-.995,1.155C639.678,188.965,638.988,188.961,638.3,188.96Zm0-1.411h.992c.6,0,.631-.043.55-.64-.171-1.251-.322-2.505-.5-3.756a1.2,1.2,0,0,1,.329-1.056,1.763,1.763,0,0,0-.14-2.514,1.826,1.826,0,0,0-2.471.027,1.794,1.794,0,0,0-.082,2.492,1.227,1.227,0,0,1,.306,1.1c-.192,1.336-.352,2.675-.536,4.012-.036.262.064.336.3.333C637.469,187.544,637.885,187.548,638.3,187.549Z" transform="translate(-623.107 -153.309)" fill="url(#linear-gradient)"/>
  <path id="Trazado_154" data-name="Trazado 154" d="M656.862,183.822c0,1.568,0,3.135,0,4.7,0,.487-.256.787-.655.8a.681.681,0,0,1-.7-.755c-.01-.849,0-1.7,0-2.546q0-3.365,0-6.731a3.812,3.812,0,0,1,.01-.431.668.668,0,0,1,.665-.612.659.659,0,0,1,.664.568,2.724,2.724,0,0,1,.019.516Q656.863,181.578,656.862,183.822Z" transform="translate(-629.679 -153.48)" fill="url(#linear-gradient-6)"/>
  <path id="Trazado_155" data-name="Trazado 155" d="M624.193,178.535a.682.682,0,0,1-.606-.985,1.5,1.5,0,0,1,.289-.37q1.794-1.8,3.595-3.6a1.432,1.432,0,0,1,.334-.267.678.678,0,0,1,.9.963,1.881,1.881,0,0,1-.253.292q-1.8,1.8-3.595,3.6A.981.981,0,0,1,624.193,178.535Z" transform="translate(-619.368 -151.859)" fill="url(#linear-gradient)"/>
  <path id="Trazado_156" data-name="Trazado 156" d="M628.627,180.883a.641.641,0,0,1-.587-.375.617.617,0,0,1,.072-.728c.616-.645,1.237-1.286,1.883-1.9a.692.692,0,0,1,1.006.035.678.678,0,0,1-.061.972c-.579.6-1.177,1.184-1.769,1.773A.745.745,0,0,1,628.627,180.883Z" transform="translate(-620.799 -153.296)" fill="url(#linear-gradient)"/>
  <path id="Trazado_157" data-name="Trazado 157" d="M656.857,174.752c0,.73-.222,1.075-.691,1.062s-.664-.34-.664-1.05c0-.158-.006-.316.007-.472a.683.683,0,0,1,.665-.654.691.691,0,0,1,.679.642C656.868,174.437,656.857,174.595,656.857,174.752Z" transform="translate(-629.679 -151.993)" fill="url(#linear-gradient-9)"/>
</svg>
