<svg id="Programar_pagos" data-name="Programar pagos" xmlns="http://www.w3.org/2000/svg" xmlns:xlink="http://www.w3.org/1999/xlink" width="48.5" height="48.562" viewBox="0 0 48.5 48.562">
  <defs>
    <linearGradient id="linear-gradient" y1="0.5" x2="1" y2="0.5" gradientUnits="objectBoundingBox">
      <stop offset="0" stop-color="#d232ed"/>
      <stop offset="0.539" stop-color="#803bec"/>
      <stop offset="1" stop-color="#579eee"/>
    </linearGradient>
    <linearGradient id="linear-gradient-4" x1="0" y1="0.5" x2="1" y2="0.5" xlink:href="#linear-gradient"/>
  </defs>
  <path id="Trazado_96" data-name="Trazado 96" d="M763.16,49.8q0,6.913,0,13.826a2.363,2.363,0,0,1-2.593,2.609q-12.507,0-25.013.011c-.51,0-.731-.13-.859-.651a9.191,9.191,0,0,0-8.221-7.106,9.34,9.34,0,1,0,8.395,10.631c.045-.322.085-.646.1-.971.016-.3.17-.373.441-.388,1.181-.065,1.285.052,1.123,1.219a10.874,10.874,0,0,1-6.311,8.759,10.967,10.967,0,1,1-8.166-20.326c.282-.1.438-.235.42-.556-.02-.374-.018-.749,0-1.124.016-.345-.141-.444-.467-.452-1.1-.029-1.1-.038-1.1-1.135,0-1.01.016-2.02-.007-3.029-.01-.432.149-.577.57-.56.634.025,1.27.007,1.9.006.656,0,.659,0,.659-.643q0-5.154,0-10.308c0-1.27,0-2.541,0-3.811a2.323,2.323,0,0,1,2.421-2.435c.537,0,1.075,0,1.612,0,.65,0,.661,0,.654-.647a2.3,2.3,0,0,1,1.089-2.109,2.359,2.359,0,0,1,3.631,1.952c.005.163,0,.326.008.488s.067.3.25.3c.341.008.684.007,1.025,0a.239.239,0,0,0,.243-.254c.01-.162.009-.325.012-.488a2.359,2.359,0,1,1,4.718.013c.011.742.011.743.756.743h6.3c.724,0,.728,0,.732-.718a2.364,2.364,0,0,1,3.843-1.89,2.291,2.291,0,0,1,.883,1.924c0,.224-.13.569.18.64a1.853,1.853,0,0,0,1.241-.044c.213-.107.1-.421.106-.641a2.363,2.363,0,0,1,3.488-2.113,2.244,2.244,0,0,1,1.232,2.023c0,.13.01.261,0,.391-.021.316.126.436.436.431.618-.011,1.238-.006,1.856,0a2.315,2.315,0,0,1,2.4,2.41q.008,7.01,0,14.021ZM743.62,41.211q-8.673,0-17.344-.008c-.47,0-.66.1-.656.619.024,2.735.017,5.472.005,8.208,0,.4.122.547.531.54,1.188-.02,2.378.012,3.566-.015.478-.011.62.163.608.623-.026,1.009-.005,2.019-.008,3.029,0,1.252.095,1.065-1.062,1.08-.032,0-.065,0-.1,0-.293-.019-.411.122-.4.409.01.391.015.782,0,1.172a.472.472,0,0,0,.387.529,10.709,10.709,0,0,1,5.233,3.761.84.84,0,0,0,.743.354q10.6-.01,21.2,0c.432,0,.556-.144.556-.565q-.016-8.037,0-16.074c0-.4-.117-.543-.528-.543q-12.752.013-25.5,0c-.408,0-.54.139-.532.539.02,1.058.007,2.117.007,3.176,0,.981,0,.961-.985.976-.465.007-.625-.147-.618-.618.023-1.645.009-3.29.01-4.935,0-.723,0-.725.733-.725H757.75c.715,0,.717,0,.717.74q0,9.43,0,18.859c0,.757,0,.759-.747.759H736.371c-.852,0-.81-.055-.506.749.294.777.288.78,1.092.78h23.354c1.013,0,1.251-.232,1.252-1.223q0-10.748,0-21.5c0-.7,0-.7-.7-.7Zm-.052-1.593h17.15c.163,0,.326,0,.489,0,.243,0,.357-.113.356-.356,0-1.173.011-2.346-.013-3.518a.779.779,0,0,0-.8-.773c-.634-.025-1.27-.005-1.9-.012-.269,0-.384.12-.38.385q.008.561,0,1.124a1.561,1.561,0,0,1-1.6,1.615c-.554.01-1.108.019-1.661-.006a1.558,1.558,0,0,1-1.455-1.453c-.013-.211,0-.424-.006-.635-.025-1.128.24-1.031-1.153-1.029-.268,0-.385.119-.381.385q.008.561,0,1.124a1.562,1.562,0,0,1-1.6,1.616q-.757.014-1.515,0a1.561,1.561,0,0,1-1.606-1.605q-.01-.562,0-1.124c0-.258-.1-.395-.371-.394q-3.518,0-7.036,0c-.267,0-.386.117-.382.383q.008.562,0,1.124a1.561,1.561,0,0,1-1.594,1.617c-.554.01-1.109.019-1.661-.005a1.557,1.557,0,0,1-1.456-1.452c-.013-.211,0-.424-.006-.635-.025-1.13.239-1.033-1.151-1.031-.267,0-.387.116-.383.383q.008.561,0,1.124a1.562,1.562,0,0,1-1.593,1.618q-.757.014-1.515,0a1.561,1.561,0,0,1-1.608-1.6,9.1,9.1,0,0,1,0-.977c.038-.44-.154-.573-.57-.551-.5.027-1.01,0-1.515.008-.709.01-1.011.308-1.017,1.015-.008.978,0,1.955,0,2.932,0,.712,0,.713.737.713Zm-18,14.072c.732,0,1.465,0,2.2,0,1.057-.007.942.127.971-.972.011-.421-.121-.573-.555-.567-1.562.021-3.125,0-4.687.01-1.086,0-.969-.143-.994,1-.009.4.119.553.53.541C723.873,53.672,724.72,53.689,725.566,53.689Zm6.289-19.259c0-.537.006-1.074,0-1.611-.008-.565-.322-.964-.751-.974s-.775.4-.78.994c-.007.862-.011,1.726,0,2.588.015,1.169-.221,1.057,1.117,1.065.326,0,.424-.151.418-.45C731.847,35.506,731.855,34.968,731.855,34.431Zm4.72-.027c0,.358,0,.716,0,1.075.016,1.113-.177,1,1.071,1.016.329,0,.47-.111.466-.453-.012-1.091,0-2.181-.008-3.272a.849.849,0,0,0-.751-.923c-.429-.009-.767.393-.777.947C736.569,33.329,736.576,33.866,736.575,34.4Zm12.511-.034h0c0,.358-.005.716,0,1.074.019,1.152-.194,1.036,1.085,1.051.343,0,.456-.139.452-.467-.011-1.091,0-2.181-.008-3.272a.775.775,0,1,0-1.526,0C749.077,33.294,749.086,33.831,749.086,34.369Zm7.789.035q0-.659,0-1.319c0-.808-.28-1.25-.78-1.24s-.754.44-.755,1.216c0,.8-.008,1.6,0,2.393.014,1.138-.2,1.026,1.1,1.04.353,0,.448-.16.441-.478C756.864,35.479,756.874,34.941,756.875,34.4ZM724.069,56.076a2.619,2.619,0,0,1,0,.293c-.049.437.107.562.561.493a9.36,9.36,0,0,1,1.511-.038c1.088.012,1.079.018,1.03-1.11-.013-.314-.128-.436-.438-.43-.618.011-1.237,0-1.856,0C724.069,55.285,724.069,55.285,724.069,56.076Z" transform="translate(-714.66 -30.215)" fill="url(#linear-gradient)"/>
  <path id="Trazado_97" data-name="Trazado 97" d="M728.725,105.55a7.835,7.835,0,1,1,7.868-7.778A7.807,7.807,0,0,1,728.725,105.55Zm6.269-7.824a6.236,6.236,0,1,0-6.248,6.224A6.315,6.315,0,0,0,734.994,97.726Z" transform="translate(-717.803 -60.152)" fill="url(#linear-gradient)"/>
  <path id="Trazado_98" data-name="Trazado 98" d="M771.81,66.351c-.445.11-.7-.1-.871-.622a1.461,1.461,0,0,0-1.613-.909,1.519,1.519,0,0,0-.114,2.987,3.011,3.011,0,0,0,.53.077,3.156,3.156,0,0,1,2.928,2.574,3.11,3.11,0,0,1-1.833,3.431.7.7,0,0,0-.481.776c.011,1.155-.041,1.184-1.213,1.07-.267-.026-.413-.143-.369-.4a1.454,1.454,0,0,0-.995-1.757,2.634,2.634,0,0,1-1.315-1.968c-.1-.48-.013-.589.466-.6.2-.005.392.014.586,0,.334-.032.485.116.59.432a1.5,1.5,0,0,0,1.732,1.08,1.529,1.529,0,0,0-.312-3.033,3.139,3.139,0,0,1-1.316-5.972.833.833,0,0,0,.567-.921c-.024-1.045-.115-.942.972-.972.463-.013.674.136.614.61-.014.112.012.23,0,.341a.791.791,0,0,0,.586.954,2.864,2.864,0,0,1,1.619,1.856C772.841,66.237,772.762,66.351,771.81,66.351Z" transform="translate(-740.625 -45.973)" fill="url(#linear-gradient)"/>
  <path id="Trazado_99" data-name="Trazado 99" d="M735.428,98.758c0,.634-.018,1.27.007,1.9a1.12,1.12,0,0,1-.4.941c-.408.373-.791.773-1.175,1.17-.17.176-.3.179-.491.013-.971-.839-.992-.852-.069-1.723a1.576,1.576,0,0,0,.542-1.324c-.043-1.023,0-2.049-.016-3.074-.006-.374.124-.524.508-.518,1.259.019,1.079-.1,1.093,1.05C735.433,97.717,735.428,98.237,735.428,98.758Z" transform="translate(-723.674 -63.295)" fill="url(#linear-gradient-4)"/>
</svg>
