<svg id="Grupo_547" data-name="Grupo 547" xmlns="http://www.w3.org/2000/svg" width="29.121" height="29.345" viewBox="0 0 29.121 29.345">
  <path id="Trazado_1781" data-name="Trazado 1781" d="M233.674,47.509a7.327,7.327,0,0,1,.958-2.7,6.658,6.658,0,0,1,5.808-3.322c2.348-.03,4.7-.012,7.046,0a6.85,6.85,0,0,1,6.673,5.982,15.873,15.873,0,0,1,.043,2.172,1.154,1.154,0,0,1-2.3-.049,12.357,12.357,0,0,0-.1-2.082,4.5,4.5,0,0,0-4-3.654c-.293-.029-.585-.04-.878-.04-2.112,0-4.224-.016-6.336.005a4.57,4.57,0,0,0-4.614,4.614q-.011,7.728,0,15.457a4.6,4.6,0,0,0,4.589,4.615c2.245.006,4.489.011,6.734,0a4.532,4.532,0,0,0,4.522-3.779,11.022,11.022,0,0,0,.084-1.941,1.155,1.155,0,0,1,2.18-.535.839.839,0,0,1,.117.349,9.429,9.429,0,0,1-.3,3.455,6.783,6.783,0,0,1-5.616,4.731.826.826,0,0,0-.108.033H239.7a1.316,1.316,0,0,0-.136-.036,6.8,6.8,0,0,1-5.166-3.7,7.893,7.893,0,0,1-.722-2.279Z" transform="translate(-233.674 -41.467)" fill="#8733ff"/>
  <path id="Trazado_1782" data-name="Trazado 1782" d="M536.816,436.922q3.053,0,6.106,0a1.148,1.148,0,0,1,1.129.869,1.182,1.182,0,0,1-.564,1.32,1.07,1.07,0,0,1-.543.14q-6.163,0-12.325,0a1.163,1.163,0,0,1,.007-2.325C532.689,436.919,534.753,436.922,536.816,436.922Z" transform="translate(-519.451 -423.399)" fill="#8733ff"/>
  <path id="Trazado_1783" data-name="Trazado 1783" d="M931.645,321.309a3.278,3.278,0,0,1-.93,2.328c-.887.914-1.787,1.815-2.691,2.712a1.141,1.141,0,0,1-1.655.016,1.167,1.167,0,0,1,.031-1.688c.826-.84,1.662-1.672,2.491-2.509a1.118,1.118,0,0,0-.008-1.77c-.827-.826-1.66-1.647-2.483-2.476a1.165,1.165,0,0,1-.05-1.667,1.119,1.119,0,0,1,1.589-.079c.991.93,1.97,1.874,2.89,2.874A3.161,3.161,0,0,1,931.645,321.309Z" transform="translate(-902.524 -306.498)" fill="#8733ff"/>
</svg>
