<svg xmlns="http://www.w3.org/2000/svg" xmlns:xlink="http://www.w3.org/1999/xlink" width="183.477" height="162.922" viewBox="0 0 203.477 182.922"><defs><linearGradient id="a" y1="0.5" x2="1" y2="0.5" gradientUnits="objectBoundingBox"><stop offset="0" stop-color="#4dc3ff"/><stop offset="0.505" stop-color="#8733ff"/><stop offset="1" stop-color="#ff31fa"/></linearGradient></defs><g transform="translate(-1330.927 -2097.035)"><path d="M1432.723,2279.767c-25.325,0-50.665-.553-75.968.179-19.274.559-32.791-19.9-22-38.285,25.6-43.617,50.689-87.531,76.124-131.244,10.359-17.8,33.141-17.852,43.478-.089,25.522,43.855,50.741,87.887,76.359,131.685,10.48,17.916-2.776,38.487-22.024,37.932C1483.387,2279.217,1458.047,2279.767,1432.723,2279.767Zm-.223-20.787q36.984,0,73.967-.008c7.459-.006,8.622-1.9,4.983-8.195q-37.084-64.134-74.219-128.239c-3.465-5.983-5.735-5.929-9.279.191q-37,63.892-73.969,127.8c-3.824,6.613-2.721,8.436,5.051,8.441Q1395.767,2259,1432.5,2258.98Z" fill="url(#a)"/><path d="M1443.143,2181.566c0,5.651.083,11.3-.02,16.952-.117,6.435-4.495,11-10.394,11.054s-10.49-4.521-10.555-10.886q-.172-17.2,0-34.4c.067-6.355,4.678-10.845,10.634-10.759,5.764.083,10.146,4.461,10.3,10.591C1443.257,2169.93,1443.142,2175.75,1443.143,2181.566Z" fill="url(#a)"/><path d="M1432.721,2220.438a13.437,13.437,0,0,1,13.753,13.914,13.835,13.835,0,1,1-27.668-.164A13.432,13.432,0,0,1,1432.721,2220.438Z" fill="url(#a)"/></g></svg>