<svg xmlns="http://www.w3.org/2000/svg" width="55.434" height="55.432" viewBox="0 0 55.434 55.432">
  <path id="icono_congelar" data-name="icono congelar" d="M967.981,3295.188c2.225,2.694,2.48,3.668,1.333,4.75s-2.083.817-4.493-1.322c-.395.253-.183.649-.2.966-.082,1.681-.923,2.7-2.279,2.7-1.407,0-2.295-1.057-2.312-2.793-.014-1.55-.034-3.1.011-4.648a2.173,2.173,0,0,0-.7-1.811c-1.325-1.251-2.606-2.549-3.874-3.858-.49-.506-.926-.839-1.631-.361-.737.5-2.136.32-1.821,1.858a3.605,3.605,0,0,1,.007.682c.013,1.913-.486,4.035.185,5.68s2.508,2.8,3.836,4.168c1.184,1.221,1.321,2.493.372,3.489s-2.275.9-3.481-.24l-.836-.784c-.165,1.986.281,4.29-2.557,4.338-1.48.025-1.991-1.059-2.16-4.141-.543.085-.776.557-1.122.853a2.266,2.266,0,0,1-3.19,0,2.207,2.207,0,0,1,.042-3.187c1.157-1.225,2.355-2.413,3.576-3.575a2.174,2.174,0,0,0,.767-1.778c-.051-1.912-.04-3.828,0-5.741.013-.63-.12-1.113-.787-1.188-.843-.1-1.551-1.3-2.559-.2-1.322,1.443-2.737,2.8-4.148,4.162a1.794,1.794,0,0,0-.537,1.464c.024,1.549.013,3.1.006,4.648-.008,1.875-.836,2.946-2.277,2.966s-2.255-1.018-2.3-2.936c-.005-.224-.022-.447-.043-.854-1.491,1.177-2.757,3.294-4.822,1.237-1.068-1.064-.738-1.92,1.416-4.409-.352-.3-.766-.142-1.135-.164-1.561-.092-2.555-.973-2.551-2.284a2.338,2.338,0,0,1,2.532-2.3c1.64-.035,3.282-.04,4.921.006a2.178,2.178,0,0,0,1.807-.712c1.253-1.324,2.547-2.608,3.859-3.873.513-.5.837-.945.344-1.631s-.245-2.057-1.723-1.812a4.454,4.454,0,0,1-.683.006c-1.958.014-4.12-.484-5.816.189-1.638.651-2.8,2.51-4.166,3.838-1.218,1.183-2.494,1.314-3.485.356s-.9-2.261.252-3.479l.773-.827c-1.99-.169-4.295.279-4.334-2.571-.02-1.468,1.057-1.972,4.1-2.149.045-.549-.463-.718-.733-1.027a2.287,2.287,0,0,1-.072-3.294,2.241,2.241,0,0,1,3.287.152c1.182,1.136,2.347,2.292,3.474,3.484a2.174,2.174,0,0,0,1.782.757c1.913-.049,3.828-.04,5.741,0,.633.013,1.106-.126,1.185-.793.1-.843,1.287-1.554.187-2.559-1.444-1.321-2.8-2.738-4.161-4.149a1.8,1.8,0,0,0-1.468-.528c-1.595.022-3.19.018-4.784,0-1.75-.015-2.808-.884-2.821-2.286s1.015-2.244,2.811-2.292c.268-.007.536,0,1.008,0-1.2-1.528-3.323-2.781-1.274-4.857,1.081-1.093,1.945-.767,4.367,1.38.419-.238.2-.641.214-.956.078-1.682.917-2.7,2.273-2.7,1.408,0,2.295,1.056,2.312,2.794.014,1.549.035,3.1-.011,4.647a2.177,2.177,0,0,0,.7,1.811c1.324,1.251,2.606,2.549,3.873,3.859.489.506.924.841,1.63.363.738-.5,2.136-.322,1.823-1.859a3.621,3.621,0,0,1-.007-.683c-.013-1.912.485-4.034-.186-5.679s-2.507-2.8-3.835-4.169c-1.192-1.227-1.328-2.486-.373-3.486.977-1.022,2.285-.9,3.577.329.19.181.386.357.732.678.19-1.912-.292-4.335,2.423-4.286,2.6.046,2.207,2.35,2.269,4.34.515-.483.828-.792,1.157-1.083a2.252,2.252,0,0,1,3.187-.009,2.212,2.212,0,0,1-.04,3.189c-1.156,1.226-2.355,2.414-3.576,3.576a2.177,2.177,0,0,0-.768,1.777c.052,1.912.036,3.827.007,5.741-.009.615.1,1.121.78,1.191.846.086,1.552,1.3,2.561.2,1.323-1.443,2.738-2.8,4.149-4.162a1.794,1.794,0,0,0,.537-1.464c-.024-1.549-.015-3.1-.007-4.648.008-1.875.835-2.946,2.276-2.968s2.263,1.02,2.3,2.934c.005.225,0,.451,0,.9,1.517-1.2,2.751-3.369,4.839-1.313,1.1,1.083.756,2.023-1.407,4.429.4.332.86.143,1.268.176a2.3,2.3,0,1,1-.085,4.576c-1.639.037-3.282.051-4.92-.009a2.3,2.3,0,0,0-1.906.8c-1.253,1.324-2.549,2.607-3.864,3.869-.5.48-.705.929-.262,1.529.5.675.207,1.958,1.713,1.855,1.9-.13,3.826-.067,5.739-.012a2.042,2.042,0,0,0,1.652-.74c1.1-1.149,2.238-2.273,3.378-3.387s2.412-1.213,3.385-.291c.993.941.906,2.279-.227,3.48l-.783.834c1.914.191,4.332-.291,4.294,2.419-.038,2.624-2.377,2.164-4.3,2.323.435.463.744.776,1.035,1.1a2.251,2.251,0,0,1,.01,3.186,2.2,2.2,0,0,1-3.185-.033c-1.227-1.155-2.414-2.355-3.576-3.575a2.177,2.177,0,0,0-1.777-.771c-1.912.053-3.827.035-5.74.007-.611-.008-1.125.086-1.2.775-.087.846-1.3,1.553-.2,2.562,1.442,1.324,2.8,2.738,4.162,4.148a1.794,1.794,0,0,0,1.462.542c1.549-.025,3.1-.013,4.648-.007,1.877.008,2.949.832,2.973,2.272s-1.016,2.263-2.931,2.31C968.589,3295.156,968.364,3295.17,967.981,3295.188Zm-18.446-10.2A4.731,4.731,0,1,0,945,3280.1,4.833,4.833,0,0,0,949.535,3284.993Z" transform="translate(-921.994 -3252.568)" fill="#7757ff"/>
</svg>
