<svg xmlns="http://www.w3.org/2000/svg" width="75.928" height="135.682" viewBox="0 0 115.928 146.682"><g transform="translate(-591.072 -7582.319)"><path d="M688.657,7664.946q0,24.97-.007,49.94c-.014,9.47-4.636,14.053-14.154,14.064-16.791.02-33.585.163-50.371-.147a14.443,14.443,0,0,1-8.364-3.359c-7.273-6.179-14.084-12.9-21.176-19.3a9.8,9.8,0,0,1-3.513-7.933c.11-27.937.05-55.875.07-83.812.007-8.833,4.807-13.656,13.687-13.67q35.175-.057,70.349,0c8.768.019,13.44,4.7,13.465,13.4C688.69,7631.074,688.657,7648.01,688.657,7664.946Zm-12.291-51.866h-72.75v75.139c7.623,0,14.978-.033,22.332.011,5.7.034,7.806,2.163,7.838,7.9.038,6.76.009,13.519.009,20.486h42.571Zm-69.91,87.471,14.837,13.7v-13.7Z" fill="#999"/><path d="M695.044,7594.481H609.621c.772-7.57,5.122-12.032,12.115-12.068q36.478-.187,72.958,0c7.3.037,12.221,5.057,12.24,12.414q.132,51.677,0,103.357c-.017,7.226-4.3,11.51-11.892,12.05Z" fill="#999"/><path d="M615.707,7632.937v-5.419h48.268v5.419Z" fill="#999"/><path d="M615.642,7651.318v-5.436h48.419v5.436Z" fill="#999"/><path d="M664.063,7664.147v5.5h-48.3v-5.5Z" fill="#999"/></g></svg>