<svg xmlns="http://www.w3.org/2000/svg" xmlns:xlink="http://www.w3.org/1999/xlink" width="123.404" height="148.756" viewBox="0 0 123.404 148.756"><defs><linearGradient id="a" y1="0.5" x2="1" y2="0.5" gradientUnits="objectBoundingBox"><stop offset="0" stop-color="#4dc3ff"/><stop offset="0.505" stop-color="#8733ff"/><stop offset="1" stop-color="#ff31fa"/></linearGradient></defs><g transform="translate(-6069.798 -2171.083)"><path d="M6069.8,2194.129c22.374-3.014,43.118-9.628,61.509-23.046,18.337,13.219,38.976,20.118,61.9,22.977-.64,9.852-.939,19.468-1.949,29.008-2.462,23.253-8,45.585-21.238,65.358a88.133,88.133,0,0,1-35.382,30.786,8.776,8.776,0,0,1-6.744-.1,88.3,88.3,0,0,1-38.729-36.384C6073.522,2255.336,6070.447,2225.207,6069.8,2194.129Zm11.848,15.771-1.691.04c3.036,15.118,5.17,30.488,9.321,45.293,6.079,21.681,18.5,39.238,38.1,51.245,3.035,1.86,5.195,1.683,8.1-.116a83.633,83.633,0,0,0,30.3-32.44c11.2-21.086,14.583-44,15.777-67.449.163-3.2-1.744-3.331-3.962-3.782a143.929,143.929,0,0,1-43.267-16.2,7.255,7.255,0,0,0-6.086.094,134.31,134.31,0,0,1-41.352,15.6C6082.156,2203.068,6079.994,2204.795,6081.646,2209.9Z" fill="url(#a)"/><path d="M6089.294,2211.517c14.079-5.921,27.043-11.436,40.084-16.761a6.873,6.873,0,0,1,4.539.3c12.108,4.576,24.195,9.215,36.2,14.061,1.365.551,3.163,2.554,3.086,3.779-1.366,21.627-5.216,42.637-16.628,61.563a76.5,76.5,0,0,1-21.732,23.143c-2.59,1.829-4.792,2.139-7.021-.109-6.76-6.818-14.584-12.922-19.954-20.711C6094.182,2256.939,6090.664,2233.876,6089.294,2211.517Z" fill="url(#a)"/></g></svg>