<svg xmlns="http://www.w3.org/2000/svg" xmlns:xlink="http://www.w3.org/1999/xlink" width="100.761" height="101" viewBox="0 0 60.761 61">
  <defs>
    <linearGradient id="linear-gradient" y1="0.5" x2="1" y2="0.5" gradientUnits="objectBoundingBox">
      <stop offset="0" stop-color="#4dc3ff"/>
      <stop offset="1" stop-color="#8733ff"/>
    </linearGradient>
    <linearGradient id="linear-gradient-2" x1="0.5" x2="0.5" y2="1" gradientUnits="objectBoundingBox">
      <stop offset="0" stop-color="#4dc3ff"/>
      <stop offset="0.706" stop-color="#8733ff"/>
      <stop offset="1" stop-color="#ff31fa"/>
    </linearGradient>
    <linearGradient id="linear-gradient-3" x1="0.5" y1="0" x2="0.5" y2="1" xlink:href="#linear-gradient"/>
    <linearGradient id="linear-gradient-4" x1="0.5" y1="1.732" x2="0.5" gradientUnits="objectBoundingBox">
      <stop offset="0" stop-color="#1a175e"/>
      <stop offset="0.191" stop-color="#271a71" stop-opacity="0.878"/>
      <stop offset="0.533" stop-color="#4b23a6" stop-opacity="0.549"/>
      <stop offset="0.984" stop-color="#8432fb" stop-opacity="0.02"/>
      <stop offset="1" stop-color="#8733ff" stop-opacity="0"/>
    </linearGradient>
    <linearGradient id="linear-gradient-5" x1="0.5" y1="1" x2="0.5" y2="0" xlink:href="#linear-gradient-4"/>
    <filter id="Trazado_69" x="30.827" y="16.116" width="22.185" height="23.921" filterUnits="userSpaceOnUse">
      <feOffset dx="1.671" dy="0.955" input="SourceAlpha"/>
      <feGaussianBlur stdDeviation="0.597" result="blur"/>
      <feFlood flood-opacity="0.749"/>
      <feComposite operator="in" in2="blur"/>
      <feComposite in="SourceGraphic"/>
    </filter>
    <linearGradient id="linear-gradient-6" x1="1" y1="0.5" x2="-0.92" y2="0.5" gradientUnits="objectBoundingBox">
      <stop offset="0" stop-color="#00495a"/>
      <stop offset="0.034" stop-color="#094765"/>
      <stop offset="0.095" stop-color="#224384"/>
      <stop offset="0.177" stop-color="#4b3cb6"/>
      <stop offset="0.274" stop-color="#8333fb"/>
      <stop offset="0.279" stop-color="#8733ff"/>
      <stop offset="1" stop-color="#ffde3e" stop-opacity="0"/>
    </linearGradient>
    <filter id="Trazado_70" x="17.001" y="30.475" width="20.76" height="23.047" filterUnits="userSpaceOnUse">
      <feOffset dx="1.67" dy="1.671" input="SourceAlpha"/>
      <feGaussianBlur stdDeviation="0.663" result="blur-2"/>
      <feFlood flood-opacity="0.251"/>
      <feComposite operator="in" in2="blur-2"/>
      <feComposite in="SourceGraphic"/>
    </filter>
    <linearGradient id="linear-gradient-7" y1="0.5" x2="1" y2="0.5" gradientUnits="objectBoundingBox">
      <stop offset="0" stop-color="#4dc3ff"/>
      <stop offset="0.505" stop-color="#8733ff"/>
      <stop offset="1" stop-color="#ff31fa"/>
    </linearGradient>
  </defs>
  <g id="icono_id_solo" data-name="icono id solo" transform="translate(-255.787 -3221)">
    <rect id="Rectángulo_25" data-name="Rectángulo 25" width="10.494" height="10.719" rx="4.509" transform="translate(273.106 3237.94)" fill="url(#linear-gradient)"/>
    <path id="Trazado_66" data-name="Trazado 66" d="M286.733,3237.952v10.707h1.29q6.82,0,6.82,5.6a5.315,5.315,0,0,1-1.91,4.274,7.374,7.374,0,0,1-4.927,1.613H283.6v-8.351H273.106v14.561a4.509,4.509,0,0,0,4.509,4.509h8.123q8.65,0,14.125-4.623a15.239,15.239,0,0,0,5.474-12.252Q305.337,3238.334,286.733,3237.952Z" fill="url(#linear-gradient-2)"/>
    <path id="Trazado_67" data-name="Trazado 67" d="M283.6,3237.94h-5.985a4.509,4.509,0,0,0-4.509,4.509v6.21H283.6Z" fill="url(#linear-gradient-3)"/>
    <path id="Trazado_68" data-name="Trazado 68" d="M286.733,3237.952v10.707h2.489s12.911.729,15.619,9.633a18.116,18.116,0,0,0,.5-4.3Q305.337,3238.334,286.733,3237.952Z" fill="url(#linear-gradient-4)"/>
    <g transform="matrix(1, 0, 0, 1, 255.79, 3221)" filter="url(#Trazado_69)">
      <path id="Trazado_69-2" data-name="Trazado 69" d="M286.733,3237.952v10.707h2.489s12.911.729,15.619,9.633a18.116,18.116,0,0,0,.5-4.3Q305.337,3238.334,286.733,3237.952Z" transform="translate(-255.79 -3221)" opacity="0.3" fill="url(#linear-gradient-5)"/>
    </g>
    <g transform="matrix(1, 0, 0, 1, 255.79, 3221)" filter="url(#Trazado_70)">
      <path id="Trazado_70-2" data-name="Trazado 70" d="M283.778,3260.143H283.6v-8.351H273.106v14.561a4.509,4.509,0,0,0,4.509,4.509h8.123a28.352,28.352,0,0,0,4.151-.293C285.517,3269.219,284.184,3263.512,283.778,3260.143Z" transform="translate(-255.79 -3221)" fill="url(#linear-gradient-6)"/>
    </g>
    <g id="Grupo_34" data-name="Grupo 34">
      <path id="Trazado_71" data-name="Trazado 71" d="M268.8,3225.626h-4.626V3221h-3.766v4.626h-4.626v3.766h4.626v4.626h3.766v-4.626H268.8Z" fill="url(#linear-gradient-7)"/>
      <path id="Trazado_72" data-name="Trazado 72" d="M300.582,3225.668H272.318v3.681h28.264a12.3,12.3,0,0,1,12.285,12.285v24.4a12.3,12.3,0,0,1-12.285,12.285h-24.4a12.3,12.3,0,0,1-12.286-12.285V3237.29h-3.68v28.744A15.984,15.984,0,0,0,276.183,3282h24.4a15.984,15.984,0,0,0,15.966-15.966v-24.4A15.984,15.984,0,0,0,300.582,3225.668Z" fill="url(#linear-gradient-7)"/>
    </g>
  </g>
</svg>
