<svg xmlns="http://www.w3.org/2000/svg" xmlns:xlink="http://www.w3.org/1999/xlink" width="224.713" height="149.313" viewBox="0 0 224.713 149.313"><defs><linearGradient id="a" y1="0.5" x2="1" y2="0.5" gradientUnits="objectBoundingBox"><stop offset="0" stop-color="#4dc3ff"/><stop offset="0.505" stop-color="#8733ff"/><stop offset="1" stop-color="#ff31fa"/></linearGradient><linearGradient id="e" x1="0.087" y1="0.5" x2="0.917" y2="0.5" xlink:href="#a"/><linearGradient id="f" x1="0.087" y1="0.5" x2="0.917" y2="0.5" xlink:href="#a"/></defs><g transform="translate(-883.991 -5601.624)"><path d="M979.059,5669.956q24.736,0,49.472.006c8.293.011,11.285,2.912,11.3,10.984q.036,29.483,0,58.966c-.011,7.8-3.152,11-10.835,11q-49.721.039-99.443.01c-7.879,0-11-3-11.029-10.809q-.1-29.733,0-59.467c.031-7.865,3.038-10.674,11.065-10.686Q954.324,5669.927,979.059,5669.956Zm-55.592,32.111c0,13.51-.084,26.642.057,39.771.037,3.453,2.645,4.114,5.657,4.11q49.995-.059,99.991.02c4.175.01,5.668-1.929,5.617-5.786-.06-4.665-.009-9.332-.008-14,0-7.953,0-15.906,0-24.116Zm.712-17.627H1034.21c1.356-8.387.431-9.517-7.493-9.518q-47.751-.006-95.5,0C923.576,5674.926,922.308,5676.616,924.179,5684.44Z" fill="url(#a)"/><path d="M1045.043,5713.177c12.97,2.81,11.883,5.961,15.981-8.957,2.726-9.919,5.37-19.86,8.213-30.392l-107.1-29.33c-1.561,5.463-3.243,10.625-4.465,15.894-.764,3.29-2.281,4.532-6.08,3.466,1-3.811,1.967-7.589,2.991-11.35,2.752-10.111,5.466-20.233,8.32-30.315,1.88-6.645,5.863-8.871,12.426-7.074q48.375,13.245,96.734,26.542c7.362,2.023,9.594,5.535,7.635,12.939q-7.787,29.429-15.922,58.766c-1.991,7.174-12.384,10-17.6,4.836C1045.264,5717.294,1045.47,5715.251,1045.043,5713.177Zm28.14-55.918c3.651-8.174,3.152-9.292-4.879-11.493q-45.937-12.588-91.885-25.146c-7.253-1.983-9.042-.557-9.177,7.632Z" fill="url(#a)"/><path d="M966.947,5718.825c9.989,0,19.981-.106,29.965.109,1.571.034,3.111,1.519,4.665,2.332-1.541.849-3.076,2.423-4.624,2.436q-30.216.252-60.434.009c-1.548-.012-3.084-1.555-4.626-2.387,1.529-.827,3.043-2.339,4.589-2.372,10.151-.215,20.309-.111,30.465-.111Z" fill="url(#a)"/><path d="M947.931,5737.751c-4.144,0-8.3.193-12.423-.116-1.259-.094-2.414-1.566-3.617-2.407,1.144-.886,2.268-2.51,3.435-2.541q12.422-.333,24.856-.008c1.236.032,2.434,1.539,3.65,2.364-1.322.9-2.586,2.459-3.978,2.584C955.908,5737.982,951.909,5737.751,947.931,5737.751Z" fill="url(#a)"/><path d="M894.107,5636.782q.8.045,1.6.057a1.48,1.48,0,0,0,.242,1.771,1.524,1.524,0,0,0,2.121,0c.626-.656,1.273-1.293,1.907-1.94.1-.008.19-.014.284-.024.192.185.381.372.571.56.372,1.637.733,3.277,1.069,4.922a1.5,1.5,0,0,0,2.893-.8c-.21-1.026-.43-2.049-.653-3.072a1.516,1.516,0,0,0-.058-2.03c-.039-.041-.08-.079-.119-.12.927-.177,1.849-.381,2.762-.623a1.5,1.5,0,0,0-.8-2.892c-.8.21-1.6.387-2.406.544,1.035-1,2.069-2.01,3.125-2.992a1.512,1.512,0,0,0,0-2.121,1.532,1.532,0,0,0-2.121,0c-.776.721-1.531,1.465-2.295,2.2-.264-1.027-.531-2.052-.809-3.075a1.5,1.5,0,0,0-2.893.8q.557,2.051,1.072,4.114c-.692-.575-1.4-1.138-2.115-1.681a1.512,1.512,0,0,0-1.156-.151,1.5,1.5,0,0,0-1.047,1.845,1.75,1.75,0,0,0,.689.9c.136.1.272.2.407.308l.024.02.182.142c.164.13.326.262.489.394q-1.484.03-2.973-.052a1.5,1.5,0,0,0,0,3Z" fill="url(#e)"/><path d="M1106.824,5706.206c-2.2.419-4.416.811-6.626,1.208l1-1.538a20.74,20.74,0,0,1,3.407-4.5c1.452-1.278-.676-3.393-2.121-2.121a20.728,20.728,0,0,0-3.448,4.444l-1.918,2.95q-.443-6.112-1.037-12.215c-.186-1.9-3.188-1.923-3,0q.552,5.637.964,11.286c-1.316-1.373-2.615-2.764-3.875-4.19a1.5,1.5,0,0,0-2.122,2.122c1.524,1.724,3.1,3.4,4.706,5.046-1.731.29-3.46.59-5.193.866a1.512,1.512,0,0,0-1.048,1.846,1.536,1.536,0,0,0,1.845,1.047c1.865-.3,3.726-.619,5.589-.932l-5.191,7.98c-1.056,1.624,1.54,3.129,2.59,1.514l3.342-5.138c.07,1.31.144,2.621.2,3.932.086,1.923,3.086,1.933,3,0q-.144-3.205-.33-6.408c.889.829,1.784,1.652,2.695,2.457a1.535,1.535,0,0,0,2.121,0,1.515,1.515,0,0,0,0-2.121q-1.708-1.511-3.364-3.078,4.308-.757,8.609-1.568C1109.516,5708.739,1108.714,5705.847,1106.824,5706.206Z" fill="url(#f)"/><path d="M906.007,5682.447q-4.881,2.432-9.962,4.391c.47-1.2.937-2.4,1.432-3.584a1.509,1.509,0,0,0-1.047-1.845,1.536,1.536,0,0,0-1.846,1.047c-.465,1.118-.9,2.246-1.347,3.372-1.348-2.077-2.652-4.182-3.879-6.335a1.5,1.5,0,0,0-2.59,1.514c.968,1.7,1.988,3.365,3.033,5.015-1.206-.207-2.411-.417-3.614-.637a1.542,1.542,0,0,0-1.846,1.048,1.512,1.512,0,0,0,1.048,1.844q2.2.4,4.4.775c-1.57.508-3.15.989-4.743,1.432a1.5,1.5,0,0,0,.8,2.893q2.589-.72,5.141-1.559-1.857,5.243-3.406,10.588a1.5,1.5,0,0,0,2.893.8q1.59-5.516,3.527-10.918,1.293,1.8,2.647,3.558a1.552,1.552,0,0,0,2.053.538,1.509,1.509,0,0,0,.538-2.052c-1.084-1.405-2.128-2.838-3.152-4.286q3.491.521,6.989.973a1.509,1.509,0,0,0,1.5-1.5,1.538,1.538,0,0,0-1.5-1.5c-.51-.065-1.018-.139-1.528-.206q3.02-1.308,5.971-2.772C909.25,5684.176,907.731,5681.588,906.007,5682.447Z" fill="url(#f)"/><path d="M1079.6,5606.453c-2.877.285-5.735.691-8.573,1.2.675-1.051,1.314-2.126,1.9-3.231.9-1.706-1.689-3.224-2.591-1.514a41.656,41.656,0,0,1-3.474,5.491c-.425-1.912-.876-3.819-1.379-5.714a1.5,1.5,0,0,0-2.893.8c.324,1.219.623,2.443.915,3.669-.7-.4-1.4-.794-2.115-1.174a1.532,1.532,0,0,0-2.052.538,1.516,1.516,0,0,0,.538,2.052c.691.369,1.372.757,2.054,1.141-2.325.634-4.631,1.339-6.912,2.134-1.811.632-1.032,3.531.8,2.893q3.777-1.317,7.642-2.335a42.522,42.522,0,0,1-3.516,3.268,1.509,1.509,0,0,0,0,2.121,1.533,1.533,0,0,0,2.121,0c1.069-.882,2.093-1.819,3.072-2.8.355,1.97.684,3.944.956,5.927a1.51,1.51,0,0,0,1.846,1.048,1.54,1.54,0,0,0,1.047-1.845c-.313-2.276-.7-4.539-1.117-6.8,1.19.78,2.368,1.577,3.525,2.406a1.51,1.51,0,0,0,2.052-.538,1.532,1.532,0,0,0-.538-2.052c-1.051-.754-2.121-1.483-3.2-2.2,3.271-.656,6.572-1.161,9.9-1.491C1081.505,5609.265,1081.524,5606.263,1079.6,5606.453Z" fill="url(#f)"/></g></svg>