<svg xmlns="http://www.w3.org/2000/svg" xmlns:xlink="http://www.w3.org/1999/xlink" width="47.954" height="25.296" viewBox="0 0 47.954 25.296">
  <defs>
    <linearGradient id="linear-gradient" y1="0.5" x2="1" y2="0.5" gradientUnits="objectBoundingBox">
      <stop offset="0" stop-color="#d232ed"/>
      <stop offset="0.539" stop-color="#803bec"/>
      <stop offset="1" stop-color="#579eee"/>
    </linearGradient>
  </defs>
  <g id="Grupo_69" data-name="Grupo 69" transform="translate(-75.213 -35.407)">
    <path id="Trazado_103" data-name="Trazado 103" d="M123.166,57.23a4.638,4.638,0,0,1-1.979,2.794,4.534,4.534,0,0,1-2.447.674q-19.533.007-39.066,0a4.344,4.344,0,0,1-4.4-3.522,4.552,4.552,0,0,1-.056-.932q0-8.187,0-16.375a4.3,4.3,0,0,1,4.414-4.452c1.45-.02,2.9,0,4.351,0q17.287,0,34.575,0a4.5,4.5,0,0,1,3.827,1.787,5.764,5.764,0,0,1,.785,1.687Zm-23.91-20.01q-9.778,0-19.557,0a2.537,2.537,0,0,0-2.736,2.751q0,8.095,0,16.189a2.534,2.534,0,0,0,2.709,2.732q19.534,0,39.068,0a3.281,3.281,0,0,0,.742-.063,2.535,2.535,0,0,0,1.968-2.617c0-5.365-.026-10.73.018-16.1a2.744,2.744,0,0,0-2.889-2.917C112.139,37.253,105.7,37.221,99.256,37.221Z" fill="url(#linear-gradient)"/>
    <path id="Trazado_104" data-name="Trazado 104" d="M102.888,60.647H86.136c-.876,0-1.034-.136-1.192-1.014A1.51,1.51,0,0,0,83.53,58.3c-.7-.075-.98-.38-.985-1.106-.009-1.279,0-2.558,0-3.837q0-3.58,0-7.159c0-.886.207-1.12,1.082-1.252a1.489,1.489,0,0,0,1.263-1.263c.156-.93.387-1.133,1.324-1.133h33.224c.993,0,1.175.154,1.368,1.12a1.507,1.507,0,0,0,1.406,1.284c.68.074.982.375.983,1.059q.011,5.615,0,11.23c0,.681-.3.979-.985,1.058a1.466,1.466,0,0,0-1.362,1.315c-.141.84-.359,1.028-1.205,1.028Zm-5.511-1.74a9.3,9.3,0,0,1-3.5-7.3,8.964,8.964,0,0,1,3.59-7.209,1.532,1.532,0,0,0-.218-.046q-5.146,0-10.294-.006a.463.463,0,0,0-.49.332,3.12,3.12,0,0,1-1.723,1.756.567.567,0,0,0-.39.6q.013,4.585,0,9.17a.566.566,0,0,0,.387.606,2.966,2.966,0,0,1,1.66,1.629.667.667,0,0,0,.738.467c3.119-.012,6.238-.007,9.358-.007Zm10.929-14.473a9.056,9.056,0,0,1-.041,14.427,2.168,2.168,0,0,0,.259.043q5.123,0,10.247.007a.494.494,0,0,0,.519-.362,3.042,3.042,0,0,1,1.655-1.7.659.659,0,0,0,.448-.712q-.02-4.515,0-9.03a.658.658,0,0,0-.46-.7,2.884,2.884,0,0,1-1.584-1.579.7.7,0,0,0-.776-.482c-3.259.014-6.519.007-9.779.01A.683.683,0,0,0,108.305,44.435Zm-5.411-.011a7.2,7.2,0,1,0,7.18,7.241A7.13,7.13,0,0,0,102.895,44.423Z" transform="translate(-3.664 -3.572)" fill="url(#linear-gradient)"/>
    <path id="Trazado_105" data-name="Trazado 105" d="M118.524,55.895a3.491,3.491,0,0,0-.032-1.246c-.158-.384-.708-.294-1.079-.428a2.161,2.161,0,0,1-1.618-1.808,2.466,2.466,0,0,1,.967-2.307,3.777,3.777,0,0,1,1.432-.767.424.424,0,0,0,.362-.5,3.567,3.567,0,0,1,.01-.653.881.881,0,0,1,.84-.8.907.907,0,0,1,.885.8c.05.312-.16.715.14.92a2.844,2.844,0,0,0,.9.224,3.774,3.774,0,0,1,1.132.426.739.739,0,0,1,.316.973.664.664,0,0,1-.886.389c-.407-.1-.812-.216-1.217-.329-.239-.067-.387-.044-.38.265.014.623.012,1.247,0,1.87a.373.373,0,0,0,.341.419,6.522,6.522,0,0,1,1.145.4c1.928.79,1.694,3.274.544,4.251a3.659,3.659,0,0,1-1.656.823.394.394,0,0,0-.374.477,3.673,3.673,0,0,1-.01.607.883.883,0,0,1-.879.8.908.908,0,0,1-.845-.8c-.049-.314.142-.7-.128-.934-.245-.214-.627-.136-.941-.228a5.5,5.5,0,0,1-1.4-.518.741.741,0,0,1-.356-1.032.7.7,0,0,1,.926-.4c.51.141,1.023.269,1.532.414.275.078.37-.015.359-.29-.013-.342,0-.685,0-1.028Zm1.773.148c0,.31,0,.621,0,.931,0,.159.02.272.236.23a1.285,1.285,0,0,0,.92-.955,1.006,1.006,0,0,0-.584-1.191c-.515-.256-.57-.224-.572.332Q120.3,55.717,120.3,56.043Zm-1.744-4.164h0c0-.263,0-.527,0-.79,0-.114,0-.216-.178-.191a1.359,1.359,0,0,0-.878,1.056.815.815,0,0,0,.612.917c.357.136.485.032.45-.341C118.537,52.315,118.553,52.1,118.553,51.879Z" transform="translate(-20.219 -5.989)" fill="url(#linear-gradient)"/>
  </g>
</svg>
